solid PORTIQUE
facet normal -8.55237334851185e-016 6.70794141327699e-015 1.0
outer loop
vertex 33.000000684699 15.0000000005601 231.367704980356
vertex 35.3500006846989 16.1421161680715 231.367704980356
vertex 33.7000006846989 19.0000000005601 231.367704980356
endloop
endfacet
facet normal -8.55237334851185e-016 6.70794141327699e-015 1.0
outer loop
vertex 35.3500006846989 16.1421161680715 231.367704980356
vertex 33.000000684699 15.0000000005601 231.367704980356
vertex 47.0000006846989 15.0000000005602 231.367704980356
endloop
endfacet
facet normal -8.55237334851185e-016 6.70794141327699e-015 1.0
outer loop
vertex 35.3500006846989 16.1421161680715 231.367704980356
vertex 47.0000006846989 15.0000000005602 231.367704980356
vertex 38.6500006846989 16.1421161680715 231.367704980356
endloop
endfacet
facet normal -8.55237334851185e-016 6.70794141327699e-015 1.0
outer loop
vertex 38.6500006846989 16.1421161680715 231.367704980356
vertex 47.0000006846989 15.0000000005602 231.367704980356
vertex 40.3000006846989 19.0000000005601 231.367704980356
endloop
endfacet
facet normal -8.55237334851185e-016 6.70794141327699e-015 1.0
outer loop
vertex 40.3000006846989 19.0000000005601 231.367704980356
vertex 47.0000006846989 15.0000000005602 231.367704980356
vertex 40.7274072950115 27.92944763974 231.367704980356
endloop
endfacet
facet normal -8.55237334851185e-016 6.70794141327699e-015 1.0
outer loop
vertex 40.7274072950115 27.92944763974 231.367704980356
vertex 47.0000006846989 15.0000000005602 231.367704980356
vertex 40.8683481871116 29.0000000005601 231.367704980356
endloop
endfacet
facet normal -8.55237334851185e-016 6.70794141327699e-015 1.0
outer loop
vertex 40.8683481871116 29.0000000005601 231.367704980356
vertex 47.0000006846989 15.0000000005602 231.367704980356
vertex 41.0000006846989 29.0000000005601 231.367704980356
endloop
endfacet
facet normal -8.55237334851185e-016 6.70794141327699e-015 1.0
outer loop
vertex 41.0000006846989 29.0000000005601 231.367704980356
vertex 47.0000006846989 15.0000000005602 231.367704980356
vertex 46.0000006846989 29.0000000005601 231.367704980356
endloop
endfacet
facet normal -8.55237334851185e-016 6.70794141327699e-015 1.0
outer loop
vertex 46.0000006846989 29.0000000005601 231.367704980356
vertex 47.0000006846989 15.0000000005602 231.367704980356
vertex 47.0000006846989 30.0000000005601 231.367704980356
endloop
endfacet
facet normal -8.55237334851185e-016 6.70794141327699e-015 1.0
outer loop
vertex 47.0000006846989 30.0000000005601 231.367704980356
vertex 46.0000006846989 30.0000000005601 231.367704980356
vertex 46.0000006846989 29.0000000005601 231.367704980356
endloop
endfacet
facet normal -8.55237334851185e-016 6.70794141327699e-015 1.0
outer loop
vertex 33.000000684699 15.0000000005601 231.367704980356
vertex 24.000000684699 24.3431457510678 231.367704980356
vertex 24.000000684699 21.3431457510678 231.367704980356
endloop
endfacet
facet normal -8.55237334851185e-016 6.70794141327699e-015 1.0
outer loop
vertex 24.000000684699 24.3431457510678 231.367704980356
vertex 33.000000684699 15.0000000005601 231.367704980356
vertex 27.3431464352066 24.3431457510678 231.367704980356
endloop
endfacet
facet normal -8.55237334851185e-016 6.70794141327699e-015 1.0
outer loop
vertex 27.3431464352066 24.3431457510678 231.367704980356
vertex 33.000000684699 15.0000000005601 231.367704980356
vertex 29.000000684699 23.0717967702846 231.367704980356
endloop
endfacet
facet normal -8.55237334851185e-016 6.70794141327699e-015 1.0
outer loop
vertex 29.000000684699 23.0717967702846 231.367704980356
vertex 33.000000684699 15.0000000005601 231.367704980356
vertex 30.9294483238788 22.2725933902476 231.367704980356
endloop
endfacet
facet normal -8.55237334851185e-016 6.70794141327699e-015 1.0
outer loop
vertex 30.9294483238788 22.2725933902476 231.367704980356
vertex 33.000000684699 15.0000000005601 231.367704980356
vertex 33.000000684699 22.0000000005601 231.367704980356
endloop
endfacet
facet normal -8.55237334851185e-016 6.70794141327699e-015 1.0
outer loop
vertex 33.000000684699 22.0000000005601 231.367704980356
vertex 33.000000684699 15.0000000005601 231.367704980356
vertex 33.7000006846989 19.0000000005601 231.367704980356
endloop
endfacet
facet normal -8.55237334851185e-016 6.70794141327699e-015 1.0
outer loop
vertex 33.000000684699 22.0000000005601 231.367704980356
vertex 33.7000006846989 19.0000000005601 231.367704980356
vertex 35.0705530455191 22.2725933902476 231.367704980356
endloop
endfacet
facet normal -8.55237334851185e-016 6.70794141327699e-015 1.0
outer loop
vertex 35.0705530455191 22.2725933902476 231.367704980356
vertex 33.7000006846989 19.0000000005601 231.367704980356
vertex 35.3500006846989 21.8578838330488 231.367704980356
endloop
endfacet
facet normal -8.55237334851185e-016 6.70794141327699e-015 1.0
outer loop
vertex 35.0705530455191 22.2725933902476 231.367704980356
vertex 35.3500006846989 21.8578838330488 231.367704980356
vertex 37.0000006846989 23.0717967702846 231.367704980356
endloop
endfacet
facet normal -8.55237334851185e-016 6.70794141327699e-015 1.0
outer loop
vertex 37.0000006846989 23.0717967702846 231.367704980356
vertex 35.3500006846989 21.8578838330488 231.367704980356
vertex 38.6500006846989 21.8578838330488 231.367704980356
endloop
endfacet
facet normal -8.55237334851185e-016 6.70794141327699e-015 1.0
outer loop
vertex 37.0000006846989 23.0717967702846 231.367704980356
vertex 38.6500006846989 21.8578838330488 231.367704980356
vertex 38.6568549341914 24.3431457510678 231.367704980356
endloop
endfacet
facet normal -8.55237334851185e-016 6.70794141327699e-015 1.0
outer loop
vertex 38.6568549341914 24.3431457510678 231.367704980356
vertex 38.6500006846989 21.8578838330488 231.367704980356
vertex 40.3000006846989 19.0000000005601 231.367704980356
endloop
endfacet
facet normal -8.55237334851185e-016 6.70794141327699e-015 1.0
outer loop
vertex 38.6568549341914 24.3431457510678 231.367704980356
vertex 40.3000006846989 19.0000000005601 231.367704980356
vertex 39.9282039149744 26.0000000005601 231.367704980356
endloop
endfacet
facet normal -8.55237334851185e-016 6.70794141327699e-015 1.0
outer loop
vertex 39.9282039149744 26.0000000005601 231.367704980356
vertex 40.3000006846989 19.0000000005601 231.367704980356
vertex 40.7274072950115 27.92944763974 231.367704980356
endloop
endfacet
facet normal 1.42685225512833e-015 -3.33181934607183e-015 -1.0
outer loop
vertex 27.3431464352066 24.3431457510678 206.367704980356
vertex 24.000000684699 21.3431457510676 206.367704980356
vertex 24.000000684699 24.3431457510678 206.367704980356
endloop
endfacet
facet normal 1.42685225512833e-015 -3.33181934607183e-015 -1.0
outer loop
vertex 24.000000684699 21.3431457510676 206.367704980356
vertex 27.3431464352066 24.3431457510678 206.367704980356
vertex 33.000000684699 15.00000000056 206.367704980356
endloop
endfacet
facet normal 1.42685225512833e-015 -3.33181934607183e-015 -1.0
outer loop
vertex 33.000000684699 15.00000000056 206.367704980356
vertex 27.3431464352066 24.3431457510678 206.367704980356
vertex 29.000000684699 23.0717967702846 206.367704980356
endloop
endfacet
facet normal 1.42685225512833e-015 -3.33181934607183e-015 -1.0
outer loop
vertex 33.000000684699 15.00000000056 206.367704980356
vertex 29.000000684699 23.0717967702846 206.367704980356
vertex 30.9294483238788 22.2725933902476 206.367704980356
endloop
endfacet
facet normal 1.42685225512833e-015 -3.33181934607183e-015 -1.0
outer loop
vertex 33.000000684699 15.00000000056 206.367704980356
vertex 30.9294483238788 22.2725933902476 206.367704980356
vertex 33.000000684699 22.0000000005601 206.367704980356
endloop
endfacet
facet normal 1.42685225512833e-015 -3.33181934607183e-015 -1.0
outer loop
vertex 33.000000684699 15.00000000056 206.367704980356
vertex 33.000000684699 22.0000000005601 206.367704980356
vertex 35.0705530455191 22.2725933902476 206.367704980356
endloop
endfacet
facet normal 1.42685225512833e-015 -3.33181934607183e-015 -1.0
outer loop
vertex 33.000000684699 15.00000000056 206.367704980356
vertex 35.0705530455191 22.2725933902476 206.367704980356
vertex 35.0000006846989 19.0000000005602 206.367704980356
endloop
endfacet
facet normal 1.42685225512833e-015 -3.33181934607183e-015 -1.0
outer loop
vertex 35.0000006846989 19.0000000005602 206.367704980356
vertex 35.0705530455191 22.2725933902476 206.367704980356
vertex 35.0681490321208 19.5176380907652 206.367704980356
endloop
endfacet
facet normal 1.42685225512833e-015 -3.33181934607183e-015 -1.0
outer loop
vertex 35.0681490321208 19.5176380907652 206.367704980356
vertex 35.0705530455191 22.2725933902476 206.367704980356
vertex 35.26794987713 20.0000000005602 206.367704980356
endloop
endfacet
facet normal 1.42685225512833e-015 -3.33181934607183e-015 -1.0
outer loop
vertex 35.26794987713 20.0000000005602 206.367704980356
vertex 35.0705530455191 22.2725933902476 206.367704980356
vertex 37.0000006846989 23.0717967702846 206.367704980356
endloop
endfacet
facet normal 1.42685225512833e-015 -3.33181934607183e-015 -1.0
outer loop
vertex 35.26794987713 20.0000000005602 206.367704980356
vertex 37.0000006846989 23.0717967702846 206.367704980356
vertex 35.5857871223258 20.4142135629332 206.367704980356
endloop
endfacet
facet normal 1.42685225512833e-015 -3.33181934607183e-015 -1.0
outer loop
vertex 35.5857871223258 20.4142135629332 206.367704980356
vertex 37.0000006846989 23.0717967702846 206.367704980356
vertex 36.0000006846989 20.732050808129 206.367704980356
endloop
endfacet
facet normal 1.42685225512833e-015 -3.33181934607183e-015 -1.0
outer loop
vertex 36.0000006846989 20.732050808129 206.367704980356
vertex 37.0000006846989 23.0717967702846 206.367704980356
vertex 36.4823625944939 20.9318516531383 206.367704980356
endloop
endfacet
facet normal 1.42685225512833e-015 -3.33181934607183e-015 -1.0
outer loop
vertex 36.4823625944939 20.9318516531383 206.367704980356
vertex 37.0000006846989 23.0717967702846 206.367704980356
vertex 37.0000006846989 21.0000000005602 206.367704980356
endloop
endfacet
facet normal 1.42685225512833e-015 -3.33181934607183e-015 -1.0
outer loop
vertex 37.0000006846989 21.0000000005602 206.367704980356
vertex 37.0000006846989 23.0717967702846 206.367704980356
vertex 37.517638774904 20.9318516531383 206.367704980356
endloop
endfacet
facet normal 1.42685225512833e-015 -3.33181934607183e-015 -1.0
outer loop
vertex 37.517638774904 20.9318516531383 206.367704980356
vertex 37.0000006846989 23.0717967702846 206.367704980356
vertex 38.6568549341914 24.3431457510678 206.367704980356
endloop
endfacet
facet normal 1.42685225512833e-015 -3.33181934607183e-015 -1.0
outer loop
vertex 37.517638774904 20.9318516531383 206.367704980356
vertex 38.6568549341914 24.3431457510678 206.367704980356
vertex 38.0000006846989 20.732050808129 206.367704980356
endloop
endfacet
facet normal 1.42685225512833e-015 -3.33181934607183e-015 -1.0
outer loop
vertex 38.0000006846989 20.732050808129 206.367704980356
vertex 38.6568549341914 24.3431457510678 206.367704980356
vertex 38.414214247072 20.4142135629332 206.367704980356
endloop
endfacet
facet normal 1.42685225512833e-015 -3.33181934607183e-015 -1.0
outer loop
vertex 38.414214247072 20.4142135629332 206.367704980356
vertex 38.6568549341914 24.3431457510678 206.367704980356
vertex 38.7320514922678 20.0000000005602 206.367704980356
endloop
endfacet
facet normal 1.42685225512833e-015 -3.33181934607183e-015 -1.0
outer loop
vertex 38.7320514922678 20.0000000005602 206.367704980356
vertex 38.6568549341914 24.3431457510678 206.367704980356
vertex 39.9282039149744 26.0000000005601 206.367704980356
endloop
endfacet
facet normal 1.42685225512833e-015 -3.33181934607183e-015 -1.0
outer loop
vertex 38.7320514922678 20.0000000005602 206.367704980356
vertex 39.9282039149744 26.0000000005601 206.367704980356
vertex 38.9318523372771 19.5176380907652 206.367704980356
endloop
endfacet
facet normal 1.42685225512833e-015 -3.33181934607183e-015 -1.0
outer loop
vertex 38.9318523372771 19.5176380907652 206.367704980356
vertex 39.9282039149744 26.0000000005601 206.367704980356
vertex 39.0000006846989 19.0000000005601 206.367704980356
endloop
endfacet
facet normal 1.42685225512833e-015 -3.33181934607183e-015 -1.0
outer loop
vertex 47.0000006846989 30.0000000005601 206.367704980356
vertex 46.0000006846989 29.0000000005601 206.367704980356
vertex 46.0000006846989 30.0000000005601 206.367704980356
endloop
endfacet
facet normal 1.42685225512833e-015 -3.33181934607183e-015 -1.0
outer loop
vertex 46.0000006846989 29.0000000005601 206.367704980356
vertex 47.0000006846989 30.0000000005601 206.367704980356
vertex 47.0000006846989 15.0000000005602 206.367704980356
endloop
endfacet
facet normal 1.42685225512833e-015 -3.33181934607183e-015 -1.0
outer loop
vertex 33.000000684699 15.00000000056 206.367704980356
vertex 36.4823625944939 17.068148347982 206.367704980356
vertex 47.0000006846989 15.0000000005602 206.367704980356
endloop
endfacet
facet normal 1.42685225512833e-015 -3.33181934607183e-015 -1.0
outer loop
vertex 36.4823625944939 17.068148347982 206.367704980356
vertex 33.000000684699 15.00000000056 206.367704980356
vertex 36.0000006846989 17.2679491929913 206.367704980356
endloop
endfacet
facet normal 1.42685225512833e-015 -3.33181934607183e-015 -1.0
outer loop
vertex 36.0000006846989 17.2679491929913 206.367704980356
vertex 33.000000684699 15.00000000056 206.367704980356
vertex 35.5857871223258 17.5857864381871 206.367704980356
endloop
endfacet
facet normal 1.42685225512833e-015 -3.33181934607183e-015 -1.0
outer loop
vertex 35.5857871223258 17.5857864381871 206.367704980356
vertex 33.000000684699 15.00000000056 206.367704980356
vertex 35.26794987713 18.0000000005601 206.367704980356
endloop
endfacet
facet normal 1.42685225512833e-015 -3.33181934607183e-015 -1.0
outer loop
vertex 35.26794987713 18.0000000005601 206.367704980356
vertex 33.000000684699 15.00000000056 206.367704980356
vertex 35.0681490321208 18.4823619103551 206.367704980356
endloop
endfacet
facet normal 1.42685225512833e-015 -3.33181934607183e-015 -1.0
outer loop
vertex 35.0681490321208 18.4823619103551 206.367704980356
vertex 33.000000684699 15.00000000056 206.367704980356
vertex 35.0000006846989 19.0000000005602 206.367704980356
endloop
endfacet
facet normal 1.42685225512833e-015 -3.33181934607183e-015 -1.0
outer loop
vertex 47.0000006846989 15.0000000005602 206.367704980356
vertex 36.4823625944939 17.068148347982 206.367704980356
vertex 37.0000006846989 17.0000000005601 206.367704980356
endloop
endfacet
facet normal 1.42685225512833e-015 -3.33181934607183e-015 -1.0
outer loop
vertex 47.0000006846989 15.0000000005602 206.367704980356
vertex 37.0000006846989 17.0000000005601 206.367704980356
vertex 37.517638774904 17.068148347982 206.367704980356
endloop
endfacet
facet normal 1.42685225512833e-015 -3.33181934607183e-015 -1.0
outer loop
vertex 47.0000006846989 15.0000000005602 206.367704980356
vertex 37.517638774904 17.068148347982 206.367704980356
vertex 38.0000006846989 17.2679491929913 206.367704980356
endloop
endfacet
facet normal 1.42685225512833e-015 -3.33181934607183e-015 -1.0
outer loop
vertex 47.0000006846989 15.0000000005602 206.367704980356
vertex 38.0000006846989 17.2679491929913 206.367704980356
vertex 38.414214247072 17.5857864381871 206.367704980356
endloop
endfacet
facet normal 1.42685225512833e-015 -3.33181934607183e-015 -1.0
outer loop
vertex 47.0000006846989 15.0000000005602 206.367704980356
vertex 38.414214247072 17.5857864381871 206.367704980356
vertex 38.7320514922678 18.0000000005601 206.367704980356
endloop
endfacet
facet normal 1.42685225512833e-015 -3.33181934607183e-015 -1.0
outer loop
vertex 47.0000006846989 15.0000000005602 206.367704980356
vertex 38.7320514922678 18.0000000005601 206.367704980356
vertex 38.9318523372771 18.4823619103551 206.367704980356
endloop
endfacet
facet normal 1.42685225512833e-015 -3.33181934607183e-015 -1.0
outer loop
vertex 47.0000006846989 15.0000000005602 206.367704980356
vertex 38.9318523372771 18.4823619103551 206.367704980356
vertex 39.0000006846989 19.0000000005601 206.367704980356
endloop
endfacet
facet normal 1.42685225512833e-015 -3.33181934607183e-015 -1.0
outer loop
vertex 47.0000006846989 15.0000000005602 206.367704980356
vertex 39.0000006846989 19.0000000005601 206.367704980356
vertex 39.9282039149744 26.0000000005601 206.367704980356
endloop
endfacet
facet normal 1.42685225512833e-015 -3.33181934607183e-015 -1.0
outer loop
vertex 47.0000006846989 15.0000000005602 206.367704980356
vertex 39.9282039149744 26.0000000005601 206.367704980356
vertex 40.7274072950115 27.92944763974 206.367704980356
endloop
endfacet
facet normal 1.42685225512833e-015 -3.33181934607183e-015 -1.0
outer loop
vertex 47.0000006846989 15.0000000005602 206.367704980356
vertex 40.7274072950115 27.92944763974 206.367704980356
vertex 40.8683481871116 29.0000000005601 206.367704980356
endloop
endfacet
facet normal 1.42685225512833e-015 -3.33181934607183e-015 -1.0
outer loop
vertex 47.0000006846989 15.0000000005602 206.367704980356
vertex 40.8683481871116 29.0000000005601 206.367704980356
vertex 41.0000006846989 29.0000000005601 206.367704980356
endloop
endfacet
facet normal 1.42685225512833e-015 -3.33181934607183e-015 -1.0
outer loop
vertex 47.0000006846989 15.0000000005602 206.367704980356
vertex 41.0000006846989 29.0000000005601 206.367704980356
vertex 46.0000006846989 29.0000000005601 206.367704980356
endloop
endfacet
facet normal -1.0 -6.57390300117881e-030 0.0
outer loop
vertex 24.000000684699 21.3431457510678 231.367704980356
vertex 24.000000684699 24.3431457510678 206.367704980356
vertex 24.000000684699 21.3431457510676 206.367704980356
endloop
endfacet
facet normal -1.0 -6.57390300117881e-030 0.0
outer loop
vertex 24.000000684699 24.3431457510678 206.367704980356
vertex 24.000000684699 21.3431457510678 231.367704980356
vertex 24.000000684699 24.3431457510678 231.367704980356
endloop
endfacet
facet normal 7.04991620636976e-015 -1.0 3.94795307556706e-015
outer loop
vertex 47.0000006846989 15.0000000005602 206.367704980356
vertex 44.0176387749041 15.0000000005601 216.935853327778
vertex 43.500000684699 15.0000000005602 216.867704980356
endloop
endfacet
facet normal 7.04991620636976e-015 -1.0 3.94795307556706e-015
outer loop
vertex 44.0176387749041 15.0000000005601 216.935853327778
vertex 47.0000006846989 15.0000000005602 206.367704980356
vertex 44.500000684699 15.0000000005601 217.135654172787
endloop
endfacet
facet normal 7.04991620636976e-015 -1.0 3.94795307556706e-015
outer loop
vertex 44.500000684699 15.0000000005601 217.135654172787
vertex 47.0000006846989 15.0000000005602 206.367704980356
vertex 44.9142142470721 15.0000000005602 217.453491417983
endloop
endfacet
facet normal 7.04991620636976e-015 -1.0 3.94795307556706e-015
outer loop
vertex 44.9142142470721 15.0000000005602 217.453491417983
vertex 47.0000006846989 15.0000000005602 206.367704980356
vertex 45.2320514922679 15.0000000005602 217.867704980356
endloop
endfacet
facet normal 7.04991620636976e-015 -1.0 3.94795307556706e-015
outer loop
vertex 45.2320514922679 15.0000000005602 217.867704980356
vertex 47.0000006846989 15.0000000005602 206.367704980356
vertex 45.4318523372771 15.0000000005601 218.350066890151
endloop
endfacet
facet normal 7.04991620636976e-015 -1.0 3.94795307556706e-015
outer loop
vertex 45.4318523372771 15.0000000005601 218.350066890151
vertex 47.0000006846989 15.0000000005602 206.367704980356
vertex 45.500000684699 15.0000000005602 218.867704980356
endloop
endfacet
facet normal 7.04991620636976e-015 -1.0 3.94795307556706e-015
outer loop
vertex 45.500000684699 15.0000000005602 218.867704980356
vertex 47.0000006846989 15.0000000005602 206.367704980356
vertex 47.0000006846989 15.0000000005602 231.367704980356
endloop
endfacet
facet normal 7.04991620636976e-015 -1.0 3.94795307556706e-015
outer loop
vertex 45.500000684699 15.0000000005602 218.867704980356
vertex 47.0000006846989 15.0000000005602 231.367704980356
vertex 45.4318523372771 15.0000000005601 219.385343070561
endloop
endfacet
facet normal 7.04991620636976e-015 -1.0 3.94795307556706e-015
outer loop
vertex 45.4318523372771 15.0000000005601 219.385343070561
vertex 47.0000006846989 15.0000000005602 231.367704980356
vertex 45.2320514922678 15.0000000005602 219.867704980356
endloop
endfacet
facet normal 7.04991620636976e-015 -1.0 3.94795307556706e-015
outer loop
vertex 45.2320514922678 15.0000000005602 219.867704980356
vertex 47.0000006846989 15.0000000005602 231.367704980356
vertex 44.9142142470721 15.0000000005601 220.281918542729
endloop
endfacet
facet normal 7.04991620636976e-015 -1.0 3.94795307556706e-015
outer loop
vertex 44.9142142470721 15.0000000005601 220.281918542729
vertex 47.0000006846989 15.0000000005602 231.367704980356
vertex 44.5000006846989 15.0000000005601 220.599755787925
endloop
endfacet
facet normal 7.04991620636976e-015 -1.0 3.94795307556706e-015
outer loop
vertex 44.5000006846989 15.0000000005601 220.599755787925
vertex 47.0000006846989 15.0000000005602 231.367704980356
vertex 44.017638774904 15.0000000005601 220.799556632934
endloop
endfacet
facet normal 7.04991620636976e-015 -1.0 3.94795307556706e-015
outer loop
vertex 44.017638774904 15.0000000005601 220.799556632934
vertex 47.0000006846989 15.0000000005602 231.367704980356
vertex 43.500000684699 15.0000000005601 220.867704980356
endloop
endfacet
facet normal 7.04991620636976e-015 -1.0 3.94795307556706e-015
outer loop
vertex 47.0000006846989 15.0000000005602 206.367704980356
vertex 33.000000684699 15.0000000005601 231.367704980356
vertex 33.000000684699 15.00000000056 206.367704980356
endloop
endfacet
facet normal 7.04991620636976e-015 -1.0 3.94795307556706e-015
outer loop
vertex 33.000000684699 15.0000000005601 231.367704980356
vertex 47.0000006846989 15.0000000005602 206.367704980356
vertex 41.7679498771301 15.0000000005602 217.867704980356
endloop
endfacet
facet normal 7.04991620636976e-015 -1.0 3.94795307556706e-015
outer loop
vertex 41.7679498771301 15.0000000005602 217.867704980356
vertex 47.0000006846989 15.0000000005602 206.367704980356
vertex 42.0857871223259 15.0000000005602 217.453491417983
endloop
endfacet
facet normal 7.04991620636976e-015 -1.0 3.94795307556706e-015
outer loop
vertex 42.0857871223259 15.0000000005602 217.453491417983
vertex 47.0000006846989 15.0000000005602 206.367704980356
vertex 42.500000684699 15.0000000005602 217.135654172787
endloop
endfacet
facet normal 7.04991620636976e-015 -1.0 3.94795307556706e-015
outer loop
vertex 42.500000684699 15.0000000005602 217.135654172787
vertex 47.0000006846989 15.0000000005602 206.367704980356
vertex 42.9823625944939 15.0000000005601 216.935853327778
endloop
endfacet
facet normal 7.04991620636976e-015 -1.0 3.94795307556706e-015
outer loop
vertex 42.9823625944939 15.0000000005601 216.935853327778
vertex 47.0000006846989 15.0000000005602 206.367704980356
vertex 43.500000684699 15.0000000005602 216.867704980356
endloop
endfacet
facet normal 7.04991620636976e-015 -1.0 3.94795307556706e-015
outer loop
vertex 33.000000684699 15.0000000005601 231.367704980356
vertex 41.7679498771301 15.0000000005602 217.867704980356
vertex 41.5681490321208 15.0000000005601 218.350066890151
endloop
endfacet
facet normal 7.04991620636976e-015 -1.0 3.94795307556706e-015
outer loop
vertex 33.000000684699 15.0000000005601 231.367704980356
vertex 41.5681490321208 15.0000000005601 218.350066890151
vertex 41.500000684699 15.0000000005601 218.867704980356
endloop
endfacet
facet normal 7.04991620636976e-015 -1.0 3.94795307556706e-015
outer loop
vertex 33.000000684699 15.0000000005601 231.367704980356
vertex 41.500000684699 15.0000000005601 218.867704980356
vertex 41.5681490321208 15.0000000005601 219.385343070561
endloop
endfacet
facet normal 7.04991620636976e-015 -1.0 3.94795307556706e-015
outer loop
vertex 33.000000684699 15.0000000005601 231.367704980356
vertex 41.5681490321208 15.0000000005601 219.385343070561
vertex 41.7679498771301 15.0000000005602 219.867704980356
endloop
endfacet
facet normal 7.04991620636976e-015 -1.0 3.94795307556706e-015
outer loop
vertex 33.000000684699 15.0000000005601 231.367704980356
vertex 41.7679498771301 15.0000000005602 219.867704980356
vertex 42.0857871223259 15.0000000005601 220.281918542729
endloop
endfacet
facet normal 7.04991620636976e-015 -1.0 3.94795307556706e-015
outer loop
vertex 33.000000684699 15.0000000005601 231.367704980356
vertex 42.0857871223259 15.0000000005601 220.281918542729
vertex 42.5000006846989 15.0000000005602 220.599755787925
endloop
endfacet
facet normal 7.04991620636976e-015 -1.0 3.94795307556706e-015
outer loop
vertex 33.000000684699 15.0000000005601 231.367704980356
vertex 42.5000006846989 15.0000000005602 220.599755787925
vertex 42.9823625944939 15.0000000005602 220.799556632934
endloop
endfacet
facet normal 7.04991620636976e-015 -1.0 3.94795307556706e-015
outer loop
vertex 33.000000684699 15.0000000005601 231.367704980356
vertex 42.9823625944939 15.0000000005602 220.799556632934
vertex 43.500000684699 15.0000000005601 220.867704980356
endloop
endfacet
facet normal 7.04991620636976e-015 -1.0 3.94795307556706e-015
outer loop
vertex 33.000000684699 15.0000000005601 231.367704980356
vertex 43.500000684699 15.0000000005601 220.867704980356
vertex 47.0000006846989 15.0000000005602 231.367704980356
endloop
endfacet
facet normal 1.0 6.57390300117881e-030 0.0
outer loop
vertex 47.0000006846989 30.0000000005601 206.367704980356
vertex 47.0000006846989 15.0000000005602 231.367704980356
vertex 47.0000006846989 15.0000000005602 206.367704980356
endloop
endfacet
facet normal 1.0 6.57390300117881e-030 0.0
outer loop
vertex 47.0000006846989 15.0000000005602 231.367704980356
vertex 47.0000006846989 30.0000000005601 206.367704980356
vertex 47.0000006846989 24.8038475778535 215.867704980356
endloop
endfacet
facet normal 1.0 6.57390300117881e-030 0.0
outer loop
vertex 47.0000006846989 15.0000000005602 231.367704980356
vertex 47.0000006846989 24.8038475778535 215.867704980356
vertex 47.0000006846989 24.2044450428257 217.314790709741
endloop
endfacet
facet normal 1.0 6.57390300117881e-030 0.0
outer loop
vertex 47.0000006846989 15.0000000005602 231.367704980356
vertex 47.0000006846989 24.2044450428257 217.314790709741
vertex 47.0000006846989 24.0000000005602 218.867704980356
endloop
endfacet
facet normal 1.0 6.57390300117881e-030 0.0
outer loop
vertex 47.0000006846989 24.8038475778535 215.867704980356
vertex 47.0000006846989 30.0000000005601 206.367704980356
vertex 47.0000006846989 25.7573593134408 214.625064293237
endloop
endfacet
facet normal 1.0 6.57390300117881e-030 0.0
outer loop
vertex 47.0000006846989 25.7573593134408 214.625064293237
vertex 47.0000006846989 30.0000000005601 206.367704980356
vertex 47.0000006846989 27.0000000005601 213.671552557649
endloop
endfacet
facet normal 1.0 6.57390300117881e-030 0.0
outer loop
vertex 47.0000006846989 27.0000000005601 213.671552557649
vertex 47.0000006846989 30.0000000005601 206.367704980356
vertex 47.0000006846989 28.447085729945 213.072150022621
endloop
endfacet
facet normal 1.0 6.57390300117881e-030 0.0
outer loop
vertex 47.0000006846989 28.447085729945 213.072150022621
vertex 47.0000006846989 30.0000000005601 206.367704980356
vertex 47.0000006846989 29.0000000005601 212.999357477943
endloop
endfacet
facet normal 1.0 6.57390300117881e-030 0.0
outer loop
vertex 47.0000006846989 29.0000000005601 212.999357477943
vertex 47.0000006846989 30.0000000005601 206.367704980356
vertex 47.0000006846989 30.0000000005601 212.999357477943
endloop
endfacet
facet normal 1.0 6.57390300117881e-030 0.0
outer loop
vertex 47.0000006846989 15.0000000005602 231.367704980356
vertex 47.0000006846989 24.8038475778535 221.867704980356
vertex 47.0000006846989 30.0000000005601 231.367704980356
endloop
endfacet
facet normal 1.0 6.57390300117881e-030 0.0
outer loop
vertex 47.0000006846989 24.8038475778535 221.867704980356
vertex 47.0000006846989 15.0000000005602 231.367704980356
vertex 47.0000006846989 24.2044450428257 220.420619250971
endloop
endfacet
facet normal 1.0 6.57390300117881e-030 0.0
outer loop
vertex 47.0000006846989 24.2044450428257 220.420619250971
vertex 47.0000006846989 15.0000000005602 231.367704980356
vertex 47.0000006846989 24.0000000005602 218.867704980356
endloop
endfacet
facet normal 1.0 6.57390300117881e-030 0.0
outer loop
vertex 47.0000006846989 30.0000000005601 231.367704980356
vertex 47.0000006846989 24.8038475778535 221.867704980356
vertex 47.0000006846989 25.7573593134409 223.110345667475
endloop
endfacet
facet normal 1.0 6.57390300117881e-030 0.0
outer loop
vertex 47.0000006846989 30.0000000005601 231.367704980356
vertex 47.0000006846989 25.7573593134409 223.110345667475
vertex 47.0000006846989 27.0000000005601 224.063857403062
endloop
endfacet
facet normal 1.0 6.57390300117881e-030 0.0
outer loop
vertex 47.0000006846989 30.0000000005601 231.367704980356
vertex 47.0000006846989 27.0000000005601 224.063857403062
vertex 47.0000006846989 28.4470857299451 224.66325993809
endloop
endfacet
facet normal 1.0 6.57390300117881e-030 0.0
outer loop
vertex 47.0000006846989 30.0000000005601 231.367704980356
vertex 47.0000006846989 28.4470857299451 224.66325993809
vertex 47.0000006846989 29.0000000005601 224.736052482768
endloop
endfacet
facet normal 1.0 6.57390300117881e-030 0.0
outer loop
vertex 47.0000006846989 30.0000000005601 231.367704980356
vertex 47.0000006846989 29.0000000005601 224.736052482768
vertex 47.0000006846989 30.0000000005601 224.736052482768
endloop
endfacet
facet normal 0.608761429008726 0.793353340291231 0.0
outer loop
vertex 27.3431464352066 24.3431457510678 231.367704980356
vertex 29.000000684699 23.0717967702846 206.367704980356
vertex 27.3431464352066 24.3431457510678 206.367704980356
endloop
endfacet
facet normal 0.500000000000001 0.866025403784438 0.0
outer loop
vertex 29.000000684699 23.0717967702846 206.367704980356
vertex 27.3431464352066 24.3431457510678 231.367704980356
vertex 29.000000684699 23.0717967702846 231.367704980356
endloop
endfacet
facet normal 0.500000000000001 0.866025403784438 0.0
outer loop
vertex 29.000000684699 23.0717967702846 206.367704980356
vertex 30.9294483238788 22.2725933902476 231.367704980356
vertex 30.9294483238788 22.2725933902476 206.367704980356
endloop
endfacet
facet normal 0.25881904510252 0.965925826289068 0.0
outer loop
vertex 30.9294483238788 22.2725933902476 231.367704980356
vertex 29.000000684699 23.0717967702846 206.367704980356
vertex 29.000000684699 23.0717967702846 231.367704980356
endloop
endfacet
facet normal 0.25881904510252 0.965925826289068 0.0
outer loop
vertex 30.9294483238788 22.2725933902476 231.367704980356
vertex 33.000000684699 22.0000000005601 206.367704980356
vertex 30.9294483238788 22.2725933902476 206.367704980356
endloop
endfacet
facet normal 9.26755429147271e-016 1.0 0.0
outer loop
vertex 33.000000684699 22.0000000005601 206.367704980356
vertex 30.9294483238788 22.2725933902476 231.367704980356
vertex 33.000000684699 22.0000000005601 231.367704980356
endloop
endfacet
facet normal -9.26755429147284e-016 1.0 0.0
outer loop
vertex 33.000000684699 22.0000000005601 231.367704980356
vertex 35.0705530455191 22.2725933902476 206.367704980356
vertex 33.000000684699 22.0000000005601 206.367704980356
endloop
endfacet
facet normal -0.258819045102517 0.96592582628907 0.0
outer loop
vertex 35.0705530455191 22.2725933902476 206.367704980356
vertex 33.000000684699 22.0000000005601 231.367704980356
vertex 35.0705530455191 22.2725933902476 231.367704980356
endloop
endfacet
facet normal -0.25881904510252 0.965925826289068 0.0
outer loop
vertex 35.0705530455191 22.2725933902476 231.367704980356
vertex 37.0000006846989 23.0717967702846 206.367704980356
vertex 35.0705530455191 22.2725933902476 206.367704980356
endloop
endfacet
facet normal -0.500000000000001 0.866025403784438 0.0
outer loop
vertex 37.0000006846989 23.0717967702846 206.367704980356
vertex 35.0705530455191 22.2725933902476 231.367704980356
vertex 37.0000006846989 23.0717967702846 231.367704980356
endloop
endfacet
facet normal -0.500000000000001 0.866025403784438 0.0
outer loop
vertex 37.0000006846989 23.0717967702846 206.367704980356
vertex 38.6568549341914 24.3431457510678 231.367704980356
vertex 38.6568549341914 24.3431457510678 206.367704980356
endloop
endfacet
facet normal -0.707106781186555 0.70710678118654 0.0
outer loop
vertex 38.6568549341914 24.3431457510678 231.367704980356
vertex 37.0000006846989 23.0717967702846 206.367704980356
vertex 37.0000006846989 23.0717967702846 231.367704980356
endloop
endfacet
facet normal -0.866025403784435 0.500000000000007 0.0
outer loop
vertex 39.9282039149744 26.0000000005601 231.367704980356
vertex 38.6568549341914 24.3431457510678 206.367704980356
vertex 38.6568549341914 24.3431457510678 231.367704980356
endloop
endfacet
facet normal -0.707106781186555 0.70710678118654 0.0
outer loop
vertex 38.6568549341914 24.3431457510678 206.367704980356
vertex 39.9282039149744 26.0000000005601 231.367704980356
vertex 39.9282039149744 26.0000000005601 206.367704980356
endloop
endfacet
facet normal -0.965925826289068 0.258819045102524 -5.95619849684162e-021
outer loop
vertex 40.7274072950115 27.92944763974 231.367704980356
vertex 39.9282039149744 26.0000000005601 206.367704980356
vertex 39.9282039149744 26.0000000005601 231.367704980356
endloop
endfacet
facet normal -0.866025403784435 0.500000000000006 0.0
outer loop
vertex 39.9282039149744 26.0000000005601 206.367704980356
vertex 40.7274072950115 27.92944763974 231.367704980356
vertex 40.7274072950115 27.92944763974 206.367704980356
endloop
endfacet
facet normal -0.991444861373814 0.130526192220029 -1.18104847860321e-020
outer loop
vertex 40.8683481871116 29.0000000005601 231.367704980356
vertex 40.7274072950115 27.92944763974 206.367704980356
vertex 40.7274072950115 27.92944763974 231.367704980356
endloop
endfacet
facet normal -0.965925826289069 0.258819045102519 -5.95619849684183e-021
outer loop
vertex 40.7274072950115 27.92944763974 206.367704980356
vertex 40.8683481871116 29.0000000005601 231.367704980356
vertex 40.8683481871116 29.0000000005601 206.367704980356
endloop
endfacet
facet normal 6.57390300117881e-030 1.0 0.0
outer loop
vertex 24.000000684699 24.3431457510678 206.367704980356
vertex 27.3431464352066 24.3431457510678 231.367704980356
vertex 27.3431464352066 24.3431457510678 206.367704980356
endloop
endfacet
facet normal 6.57390300117881e-030 1.0 0.0
outer loop
vertex 27.3431464352066 24.3431457510678 231.367704980356
vertex 24.000000684699 24.3431457510678 206.367704980356
vertex 24.000000684699 24.3431457510678 231.367704980356
endloop
endfacet
facet normal 1.97908725874847e-030 1.0 -2.61901611509066e-016
outer loop
vertex 40.8683481871116 29.0000000005601 231.367704980356
vertex 41.0000006846989 29.0000000005601 206.367704980356
vertex 40.8683481871116 29.0000000005601 206.367704980356
endloop
endfacet
facet normal 1.97908725874847e-030 1.0 -2.61901611509066e-016
outer loop
vertex 41.0000006846989 29.0000000005601 206.367704980356
vertex 40.8683481871116 29.0000000005601 231.367704980356
vertex 41.0000006846989 29.0000000005601 231.367704980356
endloop
endfacet
facet normal 0.965925826289067 1.45914313208597e-015 0.258819045102527
outer loop
vertex 41.5681490321208 29.0000000005601 218.350066890151
vertex 41.500000684699 15.0000000005601 218.867704980356
vertex 41.5681490321208 15.0000000005601 218.350066890151
endloop
endfacet
facet normal 1.0 -4.35009938287651e-020 -5.34666593738773e-016
outer loop
vertex 41.500000684699 15.0000000005601 218.867704980356
vertex 41.5681490321208 29.0000000005601 218.350066890151
vertex 41.500000684699 29.0000000005601 218.867704980356
endloop
endfacet
facet normal 0.86602540378443 3.39662809138685e-015 0.500000000000016
outer loop
vertex 41.7679498771301 15.0000000005602 217.867704980356
vertex 41.5681490321208 29.0000000005601 218.350066890151
vertex 41.5681490321208 15.0000000005601 218.350066890151
endloop
endfacet
facet normal 0.965925826289067 1.45914313208597e-015 0.258819045102527
outer loop
vertex 41.5681490321208 29.0000000005601 218.350066890151
vertex 41.7679498771301 15.0000000005602 217.867704980356
vertex 41.7679498771301 29.0000000005601 217.867704980356
endloop
endfacet
facet normal 0.707106781186529 5.31735350545277e-015 0.707106781186566
outer loop
vertex 42.0857871223259 29.0000000005601 217.453491417983
vertex 41.7679498771301 15.0000000005602 217.867704980356
vertex 42.0857871223259 15.0000000005602 217.453491417983
endloop
endfacet
facet normal 0.86602540378443 3.39662809138685e-015 0.500000000000016
outer loop
vertex 41.7679498771301 15.0000000005602 217.867704980356
vertex 42.0857871223259 29.0000000005601 217.453491417983
vertex 41.7679498771301 29.0000000005601 217.867704980356
endloop
endfacet
facet normal 0.499999999999981 6.51185397344735e-015 0.86602540378445
outer loop
vertex 42.500000684699 15.0000000005602 217.135654172787
vertex 42.0857871223259 29.0000000005601 217.453491417983
vertex 42.0857871223259 15.0000000005602 217.453491417983
endloop
endfacet
facet normal 0.707106781186529 5.31735350545277e-015 0.707106781186566
outer loop
vertex 42.0857871223259 29.0000000005601 217.453491417983
vertex 42.500000684699 15.0000000005602 217.135654172787
vertex 42.500000684699 29.0000000005601 217.135654172787
endloop
endfacet
facet normal 0.25881904510255 7.26320754470025e-015 0.965925826289061
outer loop
vertex 42.9823625944939 15.0000000005601 216.935853327778
vertex 42.500000684699 29.0000000005601 217.135654172787
vertex 42.500000684699 15.0000000005602 217.135654172787
endloop
endfacet
facet normal 0.49999999999999 6.51185397344731e-015 0.866025403784444
outer loop
vertex 42.500000684699 29.0000000005601 217.135654172787
vertex 42.9823625944939 15.0000000005601 216.935853327778
vertex 42.9823625944939 29.0000000005601 216.935853327778
endloop
endfacet
facet normal -9.1784431925155e-016 7.51976599179452e-015 1.0
outer loop
vertex 43.500000684699 15.0000000005602 216.867704980356
vertex 42.9823625944939 29.0000000005601 216.935853327778
vertex 42.9823625944939 15.0000000005601 216.935853327778
endloop
endfacet
facet normal 0.258819045102549 7.26320754470026e-015 0.965925826289061
outer loop
vertex 42.9823625944939 29.0000000005601 216.935853327778
vertex 43.500000684699 15.0000000005602 216.867704980356
vertex 43.500000684699 29.0000000005601 216.867704980356
endloop
endfacet
facet normal -0.258819045102519 7.26320754470031e-015 0.965925826289069
outer loop
vertex 44.0176387749041 15.0000000005601 216.935853327778
vertex 43.500000684699 29.0000000005601 216.867704980356
vertex 43.500000684699 15.0000000005602 216.867704980356
endloop
endfacet
facet normal -8.91110989564778e-018 7.51976599179452e-015 1.0
outer loop
vertex 43.500000684699 29.0000000005601 216.867704980356
vertex 44.0176387749041 15.0000000005601 216.935853327778
vertex 44.0176387749041 29.0000000005601 216.935853327778
endloop
endfacet
facet normal -0.499999999999997 6.51185397344726e-015 0.866025403784441
outer loop
vertex 44.500000684699 15.0000000005601 217.135654172787
vertex 44.0176387749041 29.0000000005601 216.935853327778
vertex 44.0176387749041 15.0000000005601 216.935853327778
endloop
endfacet
facet normal -0.258819045102517 7.26320754470031e-015 0.965925826289069
outer loop
vertex 44.0176387749041 29.0000000005601 216.935853327778
vertex 44.500000684699 15.0000000005601 217.135654172787
vertex 44.500000684699 29.0000000005601 217.135654172787
endloop
endfacet
facet normal -0.707106781186566 5.31735350545247e-015 0.707106781186529
outer loop
vertex 44.9142142470721 15.0000000005602 217.453491417983
vertex 44.500000684699 29.0000000005601 217.135654172787
vertex 44.500000684699 15.0000000005601 217.135654172787
endloop
endfacet
facet normal -0.500000000000007 6.51185397344722e-015 0.866025403784434
outer loop
vertex 44.500000684699 29.0000000005601 217.135654172787
vertex 44.9142142470721 15.0000000005602 217.453491417983
vertex 44.9142142470721 29.0000000005601 217.453491417983
endloop
endfacet
facet normal -0.866025403784423 3.39662809138697e-015 0.500000000000027
outer loop
vertex 45.2320514922679 29.0000000005601 217.867704980356
vertex 44.9142142470721 15.0000000005602 217.453491417983
vertex 45.2320514922679 15.0000000005602 217.867704980356
endloop
endfacet
facet normal -0.707106781186566 5.31735350545247e-015 0.707106781186529
outer loop
vertex 44.9142142470721 15.0000000005602 217.453491417983
vertex 45.2320514922679 29.0000000005601 217.867704980356
vertex 44.9142142470721 29.0000000005601 217.453491417983
endloop
endfacet
facet normal -0.965925826289067 1.45914313208597e-015 0.258819045102527
outer loop
vertex 45.4318523372771 29.0000000005601 218.350066890151
vertex 45.2320514922679 15.0000000005602 217.867704980356
vertex 45.4318523372771 15.0000000005601 218.350066890151
endloop
endfacet
facet normal -0.86602540378443 3.39662809138684e-015 0.500000000000015
outer loop
vertex 45.2320514922679 15.0000000005602 217.867704980356
vertex 45.4318523372771 29.0000000005601 218.350066890151
vertex 45.2320514922679 29.0000000005601 217.867704980356
endloop
endfacet
facet normal -1.0 -4.35009938414274e-020 -5.34666593738758e-016
outer loop
vertex 45.500000684699 15.0000000005602 218.867704980356
vertex 45.4318523372771 29.0000000005601 218.350066890151
vertex 45.4318523372771 15.0000000005601 218.350066890151
endloop
endfacet
facet normal -0.965925826289067 1.45914313208597e-015 0.258819045102527
outer loop
vertex 45.4318523372771 29.0000000005601 218.350066890151
vertex 45.500000684699 15.0000000005602 218.867704980356
vertex 45.500000684699 29.0000000005601 218.867704980356
endloop
endfacet
facet normal -0.965925826289067 -1.46000362326174e-015 -0.258819045102527
outer loop
vertex 45.4318523372771 29.0000000005601 219.385343070561
vertex 45.500000684699 15.0000000005602 218.867704980356
vertex 45.4318523372771 15.0000000005601 219.385343070561
endloop
endfacet
facet normal -1.0 -4.35009938414274e-020 -5.34666593738758e-016
outer loop
vertex 45.500000684699 15.0000000005602 218.867704980356
vertex 45.4318523372771 29.0000000005601 219.385343070561
vertex 45.500000684699 29.0000000005601 218.867704980356
endloop
endfacet
facet normal -0.866025403784427 -3.39753554135671e-015 -0.500000000000021
outer loop
vertex 45.2320514922678 15.0000000005602 219.867704980356
vertex 45.4318523372771 29.0000000005601 219.385343070561
vertex 45.4318523372771 15.0000000005601 219.385343070561
endloop
endfacet
facet normal -0.965925826289067 -1.46000362326174e-015 -0.258819045102527
outer loop
vertex 45.4318523372771 29.0000000005601 219.385343070561
vertex 45.2320514922678 15.0000000005602 219.867704980356
vertex 45.2320514922678 29.0000000005601 219.867704980356
endloop
endfacet
facet normal -0.70710678118653 -5.31723616587841e-015 -0.707106781186565
outer loop
vertex 44.9142142470721 29.0000000005601 220.281918542729
vertex 45.2320514922678 15.0000000005602 219.867704980356
vertex 44.9142142470721 15.0000000005601 220.281918542729
endloop
endfacet
facet normal -0.866025403784427 -3.39753554135671e-015 -0.500000000000021
outer loop
vertex 45.2320514922678 15.0000000005602 219.867704980356
vertex 44.9142142470721 29.0000000005601 220.281918542729
vertex 45.2320514922678 29.0000000005601 219.867704980356
endloop
endfacet
facet normal -0.70710678118653 -5.31723616587841e-015 -0.707106781186565
outer loop
vertex 44.9142142470721 29.0000000005601 220.281918542729
vertex 44.5000006846989 15.0000000005601 220.599755787925
vertex 44.5000006846989 29.0000000005601 220.599755787925
endloop
endfacet
facet normal -0.499999999999989 -6.51228099389952e-015 -0.866025403784445
outer loop
vertex 44.5000006846989 15.0000000005601 220.599755787925
vertex 44.9142142470721 29.0000000005601 220.281918542729
vertex 44.9142142470721 15.0000000005601 220.281918542729
endloop
endfacet
facet normal -0.499999999999981 -6.51228099389955e-015 -0.866025403784449
outer loop
vertex 44.5000006846989 29.0000000005601 220.599755787925
vertex 44.017638774904 15.0000000005601 220.799556632934
vertex 44.017638774904 29.0000000005601 220.799556632934
endloop
endfacet
facet normal -0.258819045102545 -7.26384236451469e-015 -0.965925826289062
outer loop
vertex 44.017638774904 15.0000000005601 220.799556632934
vertex 44.5000006846989 29.0000000005601 220.599755787925
vertex 44.5000006846989 15.0000000005601 220.599755787925
endloop
endfacet
facet normal -0.258819045102554 -7.26384236451467e-015 -0.965925826289059
outer loop
vertex 44.017638774904 29.0000000005601 220.799556632934
vertex 43.500000684699 15.0000000005601 220.867704980356
vertex 43.500000684699 29.0000000005601 220.867704980356
endloop
endfacet
facet normal -9.08933209356055e-016 -7.51976599179452e-015 -1.0
outer loop
vertex 43.500000684699 15.0000000005601 220.867704980356
vertex 44.017638774904 29.0000000005601 220.799556632934
vertex 44.017638774904 15.0000000005601 220.799556632934
endloop
endfacet
facet normal 0.0 -7.51976599179452e-015 -1.0
outer loop
vertex 43.500000684699 29.0000000005601 220.867704980356
vertex 42.9823625944939 15.0000000005602 220.799556632934
vertex 42.9823625944939 29.0000000005601 220.799556632934
endloop
endfacet
facet normal 0.258819045102513 -7.26384236451475e-015 -0.965925826289071
outer loop
vertex 42.9823625944939 15.0000000005602 220.799556632934
vertex 43.500000684699 29.0000000005601 220.867704980356
vertex 43.500000684699 15.0000000005601 220.867704980356
endloop
endfacet
facet normal 0.258819045102523 -7.26384236451474e-015 -0.965925826289068
outer loop
vertex 42.9823625944939 29.0000000005601 220.799556632934
vertex 42.5000006846989 15.0000000005602 220.599755787925
vertex 42.5000006846989 29.0000000005601 220.599755787925
endloop
endfacet
facet normal 0.500000000000007 -6.51287751219962e-015 -0.866025403784435
outer loop
vertex 42.5000006846989 15.0000000005602 220.599755787925
vertex 42.9823625944939 29.0000000005601 220.799556632934
vertex 42.9823625944939 15.0000000005602 220.799556632934
endloop
endfacet
facet normal 0.499999999999999 -6.51287751219965e-015 -0.86602540378444
outer loop
vertex 42.5000006846989 29.0000000005601 220.599755787925
vertex 42.0857871223259 15.0000000005601 220.281918542729
vertex 42.0857871223259 29.0000000005601 220.281918542729
endloop
endfacet
facet normal 0.707106781186566 -5.3178326841783e-015 -0.707106781186529
outer loop
vertex 42.0857871223259 15.0000000005601 220.281918542729
vertex 42.5000006846989 29.0000000005601 220.599755787925
vertex 42.5000006846989 15.0000000005602 220.599755787925
endloop
endfacet
facet normal 0.866025403784427 -3.3975355413567e-015 -0.500000000000021
outer loop
vertex 41.7679498771301 15.0000000005602 219.867704980356
vertex 42.0857871223259 29.0000000005601 220.281918542729
vertex 42.0857871223259 15.0000000005601 220.281918542729
endloop
endfacet
facet normal 0.707106781186567 -5.31783268417829e-015 -0.707106781186528
outer loop
vertex 42.0857871223259 29.0000000005601 220.281918542729
vertex 41.7679498771301 15.0000000005602 219.867704980356
vertex 41.7679498771301 29.0000000005601 219.867704980356
endloop
endfacet
facet normal 0.965925826289067 -1.46000362326173e-015 -0.258819045102526
outer loop
vertex 41.5681490321208 29.0000000005601 219.385343070561
vertex 41.7679498771301 15.0000000005602 219.867704980356
vertex 41.5681490321208 15.0000000005601 219.385343070561
endloop
endfacet
facet normal 0.866025403784427 -3.3975355413567e-015 -0.500000000000021
outer loop
vertex 41.7679498771301 15.0000000005602 219.867704980356
vertex 41.5681490321208 29.0000000005601 219.385343070561
vertex 41.7679498771301 29.0000000005601 219.867704980356
endloop
endfacet
facet normal 1.0 -4.35009938287651e-020 -5.34666593738773e-016
outer loop
vertex 41.500000684699 15.0000000005601 218.867704980356
vertex 41.5681490321208 29.0000000005601 219.385343070561
vertex 41.5681490321208 15.0000000005601 219.385343070561
endloop
endfacet
facet normal 0.965925826289067 -1.46000362326173e-015 -0.258819045102526
outer loop
vertex 41.5681490321208 29.0000000005601 219.385343070561
vertex 41.500000684699 15.0000000005601 218.867704980356
vertex 41.500000684699 29.0000000005601 218.867704980356
endloop
endfacet
facet normal 1.0 6.57390300117881e-030 0.0
outer loop
vertex 46.0000006846989 24.2044450428257 217.314790709741
vertex 46.0000006846989 24.2044450428257 220.420619250971
vertex 46.0000006846989 24.0000000005602 218.867704980356
endloop
endfacet
facet normal 1.0 6.57390300117881e-030 0.0
outer loop
vertex 46.0000006846989 24.2044450428257 220.420619250971
vertex 46.0000006846989 24.2044450428257 217.314790709741
vertex 46.0000006846989 24.8038475778535 221.867704980356
endloop
endfacet
facet normal 1.0 6.57390300117881e-030 0.0
outer loop
vertex 46.0000006846989 24.8038475778535 221.867704980356
vertex 46.0000006846989 24.2044450428257 217.314790709741
vertex 46.0000006846989 24.8038475778535 215.867704980356
endloop
endfacet
facet normal 1.0 6.57390300117881e-030 0.0
outer loop
vertex 46.0000006846989 24.8038475778535 221.867704980356
vertex 46.0000006846989 24.8038475778535 215.867704980356
vertex 46.0000006846989 25.7573593134408 214.625064293237
endloop
endfacet
facet normal 1.0 6.57390300117881e-030 0.0
outer loop
vertex 46.0000006846989 24.8038475778535 221.867704980356
vertex 46.0000006846989 25.7573593134408 214.625064293237
vertex 46.0000006846989 25.7573593134409 223.110345667475
endloop
endfacet
facet normal 1.0 6.57390300117881e-030 0.0
outer loop
vertex 46.0000006846989 25.7573593134409 223.110345667475
vertex 46.0000006846989 25.7573593134408 214.625064293237
vertex 46.0000006846989 27.0000000005601 213.671552557649
endloop
endfacet
facet normal 1.0 6.57390300117881e-030 0.0
outer loop
vertex 46.0000006846989 25.7573593134409 223.110345667475
vertex 46.0000006846989 27.0000000005601 213.671552557649
vertex 46.0000006846989 27.0000000005601 224.063857403062
endloop
endfacet
facet normal 1.0 6.57390300117881e-030 0.0
outer loop
vertex 46.0000006846989 27.0000000005601 224.063857403062
vertex 46.0000006846989 27.0000000005601 213.671552557649
vertex 46.0000006846989 28.447085729945 213.072150022621
endloop
endfacet
facet normal 1.0 6.57390300117881e-030 0.0
outer loop
vertex 46.0000006846989 27.0000000005601 224.063857403062
vertex 46.0000006846989 28.447085729945 213.072150022621
vertex 46.0000006846989 28.4470857299451 224.66325993809
endloop
endfacet
facet normal 1.0 6.57390300117881e-030 0.0
outer loop
vertex 46.0000006846989 28.4470857299451 224.66325993809
vertex 46.0000006846989 28.447085729945 213.072150022621
vertex 46.0000006846989 29.0000000005601 212.999357477943
endloop
endfacet
facet normal 1.0 6.57390300117881e-030 0.0
outer loop
vertex 46.0000006846989 28.4470857299451 224.66325993809
vertex 46.0000006846989 29.0000000005601 212.999357477943
vertex 46.0000006846989 29.0000000005601 224.736052482768
endloop
endfacet
facet normal 0.0 0.258819045102527 0.965925826289067
outer loop
vertex 47.0000006846989 28.447085729945 213.072150022621
vertex 46.0000006846989 29.0000000005601 212.999357477943
vertex 46.0000006846989 28.447085729945 213.072150022621
endloop
endfacet
facet normal 0.0 0.130526192220068 0.991444861373808
outer loop
vertex 46.0000006846989 29.0000000005601 212.999357477943
vertex 47.0000006846989 28.447085729945 213.072150022621
vertex 47.0000006846989 29.0000000005601 212.999357477943
endloop
endfacet
facet normal 0.0 0.130526192219999 -0.991444861373817
outer loop
vertex 47.0000006846989 29.0000000005601 224.736052482768
vertex 46.0000006846989 28.4470857299451 224.66325993809
vertex 46.0000006846989 29.0000000005601 224.736052482768
endloop
endfacet
facet normal 0.0 0.258819045102503 -0.965925826289073
outer loop
vertex 46.0000006846989 28.4470857299451 224.66325993809
vertex 47.0000006846989 29.0000000005601 224.736052482768
vertex 47.0000006846989 28.4470857299451 224.66325993809
endloop
endfacet
facet normal 0.0 0.258819045102503 -0.965925826289073
outer loop
vertex 47.0000006846989 28.4470857299451 224.66325993809
vertex 46.0000006846989 27.0000000005601 224.063857403062
vertex 46.0000006846989 28.4470857299451 224.66325993809
endloop
endfacet
facet normal 0.0 0.500000000000008 -0.866025403784434
outer loop
vertex 46.0000006846989 27.0000000005601 224.063857403062
vertex 47.0000006846989 28.4470857299451 224.66325993809
vertex 47.0000006846989 27.0000000005601 224.063857403062
endloop
endfacet
facet normal 0.0 0.500000000000008 -0.866025403784434
outer loop
vertex 46.0000006846989 27.0000000005601 224.063857403062
vertex 47.0000006846989 25.7573593134409 223.110345667475
vertex 46.0000006846989 25.7573593134409 223.110345667475
endloop
endfacet
facet normal 0.0 0.70710678118654 -0.707106781186556
outer loop
vertex 47.0000006846989 25.7573593134409 223.110345667475
vertex 46.0000006846989 27.0000000005601 224.063857403062
vertex 47.0000006846989 27.0000000005601 224.063857403062
endloop
endfacet
facet normal 0.0 0.707106781186539 -0.707106781186556
outer loop
vertex 46.0000006846989 25.7573593134409 223.110345667475
vertex 47.0000006846989 24.8038475778535 221.867704980356
vertex 46.0000006846989 24.8038475778535 221.867704980356
endloop
endfacet
facet normal 0.0 0.866025403784431 -0.500000000000013
outer loop
vertex 47.0000006846989 24.8038475778535 221.867704980356
vertex 46.0000006846989 25.7573593134409 223.110345667475
vertex 47.0000006846989 25.7573593134409 223.110345667475
endloop
endfacet
facet normal 0.0 0.866025403784431 -0.500000000000013
outer loop
vertex 46.0000006846989 24.8038475778535 221.867704980356
vertex 47.0000006846989 24.2044450428257 220.420619250971
vertex 46.0000006846989 24.2044450428257 220.420619250971
endloop
endfacet
facet normal 0.0 0.965925826289068 -0.258819045102524
outer loop
vertex 47.0000006846989 24.2044450428257 220.420619250971
vertex 46.0000006846989 24.8038475778535 221.867704980356
vertex 47.0000006846989 24.8038475778535 221.867704980356
endloop
endfacet
facet normal 0.0 0.965925826289068 -0.258819045102524
outer loop
vertex 46.0000006846989 24.2044450428257 220.420619250971
vertex 47.0000006846989 24.0000000005602 218.867704980356
vertex 46.0000006846989 24.0000000005602 218.867704980356
endloop
endfacet
facet normal 0.0 1.0 -3.51988840878053e-015
outer loop
vertex 47.0000006846989 24.0000000005602 218.867704980356
vertex 46.0000006846989 24.2044450428257 220.420619250971
vertex 47.0000006846989 24.2044450428257 220.420619250971
endloop
endfacet
facet normal 0.0 1.0 -3.66246616711088e-015
outer loop
vertex 46.0000006846989 24.0000000005602 218.867704980356
vertex 47.0000006846989 24.2044450428257 217.314790709741
vertex 46.0000006846989 24.2044450428257 217.314790709741
endloop
endfacet
facet normal 0.0 0.965925826289069 0.258819045102519
outer loop
vertex 47.0000006846989 24.2044450428257 217.314790709741
vertex 46.0000006846989 24.0000000005602 218.867704980356
vertex 47.0000006846989 24.0000000005602 218.867704980356
endloop
endfacet
facet normal 0.0 0.965925826289069 0.258819045102519
outer loop
vertex 46.0000006846989 24.2044450428257 217.314790709741
vertex 47.0000006846989 24.8038475778535 215.867704980356
vertex 46.0000006846989 24.8038475778535 215.867704980356
endloop
endfacet
facet normal 0.0 0.866025403784442 0.499999999999994
outer loop
vertex 47.0000006846989 24.8038475778535 215.867704980356
vertex 46.0000006846989 24.2044450428257 217.314790709741
vertex 47.0000006846989 24.2044450428257 217.314790709741
endloop
endfacet
facet normal 0.0 0.866025403784442 0.499999999999994
outer loop
vertex 46.0000006846989 24.8038475778535 215.867704980356
vertex 47.0000006846989 25.7573593134408 214.625064293237
vertex 46.0000006846989 25.7573593134408 214.625064293237
endloop
endfacet
facet normal 0.0 0.707106781186556 0.70710678118654
outer loop
vertex 47.0000006846989 25.7573593134408 214.625064293237
vertex 46.0000006846989 24.8038475778535 215.867704980356
vertex 47.0000006846989 24.8038475778535 215.867704980356
endloop
endfacet
facet normal 0.0 0.707106781186556 0.70710678118654
outer loop
vertex 47.0000006846989 25.7573593134408 214.625064293237
vertex 46.0000006846989 27.0000000005601 213.671552557649
vertex 46.0000006846989 25.7573593134408 214.625064293237
endloop
endfacet
facet normal 0.0 0.500000000000001 0.866025403784438
outer loop
vertex 46.0000006846989 27.0000000005601 213.671552557649
vertex 47.0000006846989 25.7573593134408 214.625064293237
vertex 47.0000006846989 27.0000000005601 213.671552557649
endloop
endfacet
facet normal 0.0 0.500000000000001 0.866025403784438
outer loop
vertex 47.0000006846989 27.0000000005601 213.671552557649
vertex 46.0000006846989 28.447085729945 213.072150022621
vertex 46.0000006846989 27.0000000005601 213.671552557649
endloop
endfacet
facet normal 0.0 0.258819045102527 0.965925826289067
outer loop
vertex 46.0000006846989 28.447085729945 213.072150022621
vertex 47.0000006846989 27.0000000005601 213.671552557649
vertex 47.0000006846989 28.447085729945 213.072150022621
endloop
endfacet
facet normal -0.965925826289068 0.258819045102521 0.0
outer loop
vertex 38.9318523372771 18.4823619103551 227.367704980356
vertex 38.7320514922678 18.0000000005601 206.367704980356
vertex 38.7320514922678 18.0000000005601 227.367704980356
endloop
endfacet
facet normal -0.86602540378444 0.499999999999998 0.0
outer loop
vertex 38.7320514922678 18.0000000005601 206.367704980356
vertex 38.9318523372771 18.4823619103551 227.367704980356
vertex 38.9318523372771 18.4823619103551 206.367704980356
endloop
endfacet
facet normal -1.0 3.65355505721523e-016 0.0
outer loop
vertex 39.0000006846989 19.0000000005601 227.367704980356
vertex 38.9318523372771 18.4823619103551 206.367704980356
vertex 38.9318523372771 18.4823619103551 227.367704980356
endloop
endfacet
facet normal -0.965925826289068 0.258819045102521 0.0
outer loop
vertex 38.9318523372771 18.4823619103551 206.367704980356
vertex 39.0000006846989 19.0000000005601 227.367704980356
vertex 39.0000006846989 19.0000000005601 206.367704980356
endloop
endfacet
facet normal -0.965925826289068 -0.258819045102521 0.0
outer loop
vertex 38.9318523372771 19.5176380907652 227.367704980356
vertex 39.0000006846989 19.0000000005601 206.367704980356
vertex 39.0000006846989 19.0000000005601 227.367704980356
endloop
endfacet
facet normal -1.0 3.65355505721523e-016 0.0
outer loop
vertex 39.0000006846989 19.0000000005601 206.367704980356
vertex 38.9318523372771 19.5176380907652 227.367704980356
vertex 38.9318523372771 19.5176380907652 206.367704980356
endloop
endfacet
facet normal -0.866025403784439 -0.499999999999999 0.0
outer loop
vertex 38.7320514922678 20.0000000005602 227.367704980356
vertex 38.9318523372771 19.5176380907652 206.367704980356
vertex 38.9318523372771 19.5176380907652 227.367704980356
endloop
endfacet
facet normal -0.965925826289068 -0.258819045102521 0.0
outer loop
vertex 38.9318523372771 19.5176380907652 206.367704980356
vertex 38.7320514922678 20.0000000005602 227.367704980356
vertex 38.7320514922678 20.0000000005602 206.367704980356
endloop
endfacet
facet normal -0.707106781186547 -0.707106781186548 0.0
outer loop
vertex 38.414214247072 20.4142135629332 227.367704980356
vertex 38.7320514922678 20.0000000005602 206.367704980356
vertex 38.7320514922678 20.0000000005602 227.367704980356
endloop
endfacet
facet normal -0.866025403784439 -0.499999999999999 0.0
outer loop
vertex 38.7320514922678 20.0000000005602 206.367704980356
vertex 38.414214247072 20.4142135629332 227.367704980356
vertex 38.414214247072 20.4142135629332 206.367704980356
endloop
endfacet
facet normal -0.707106781186547 -0.707106781186548 0.0
outer loop
vertex 38.414214247072 20.4142135629332 227.367704980356
vertex 38.0000006846989 20.732050808129 206.367704980356
vertex 38.414214247072 20.4142135629332 206.367704980356
endloop
endfacet
facet normal -0.499999999999998 -0.866025403784439 0.0
outer loop
vertex 38.0000006846989 20.732050808129 206.367704980356
vertex 38.414214247072 20.4142135629332 227.367704980356
vertex 38.0000006846989 20.732050808129 227.367704980356
endloop
endfacet
facet normal -0.499999999999998 -0.866025403784439 0.0
outer loop
vertex 38.0000006846989 20.732050808129 227.367704980356
vertex 37.517638774904 20.9318516531383 206.367704980356
vertex 38.0000006846989 20.732050808129 206.367704980356
endloop
endfacet
facet normal -0.258819045102522 -0.965925826289068 0.0
outer loop
vertex 37.517638774904 20.9318516531383 206.367704980356
vertex 38.0000006846989 20.732050808129 227.367704980356
vertex 37.517638774904 20.9318516531383 227.367704980356
endloop
endfacet
facet normal -0.258819045102522 -0.965925826289068 0.0
outer loop
vertex 37.517638774904 20.9318516531383 227.367704980356
vertex 37.0000006846989 21.0000000005602 206.367704980356
vertex 37.517638774904 20.9318516531383 206.367704980356
endloop
endfacet
facet normal 0.0 -1.0 0.0
outer loop
vertex 37.0000006846989 21.0000000005602 206.367704980356
vertex 37.517638774904 20.9318516531383 227.367704980356
vertex 37.0000006846989 21.0000000005602 227.367704980356
endloop
endfacet
facet normal 0.0 -1.0 0.0
outer loop
vertex 37.0000006846989 21.0000000005602 227.367704980356
vertex 36.4823625944939 20.9318516531383 206.367704980356
vertex 37.0000006846989 21.0000000005602 206.367704980356
endloop
endfacet
facet normal 0.25881904510252 -0.965925826289069 0.0
outer loop
vertex 36.4823625944939 20.9318516531383 206.367704980356
vertex 37.0000006846989 21.0000000005602 227.367704980356
vertex 36.4823625944939 20.9318516531383 227.367704980356
endloop
endfacet
facet normal 0.25881904510252 -0.965925826289069 0.0
outer loop
vertex 36.4823625944939 20.9318516531383 227.367704980356
vertex 36.0000006846989 20.732050808129 206.367704980356
vertex 36.4823625944939 20.9318516531383 206.367704980356
endloop
endfacet
facet normal 0.5 -0.866025403784439 0.0
outer loop
vertex 36.0000006846989 20.732050808129 206.367704980356
vertex 36.4823625944939 20.9318516531383 227.367704980356
vertex 36.0000006846989 20.732050808129 227.367704980356
endloop
endfacet
facet normal 0.5 -0.866025403784439 0.0
outer loop
vertex 36.0000006846989 20.732050808129 227.367704980356
vertex 35.5857871223258 20.4142135629332 206.367704980356
vertex 36.0000006846989 20.732050808129 206.367704980356
endloop
endfacet
facet normal 0.707106781186549 -0.707106781186546 0.0
outer loop
vertex 35.5857871223258 20.4142135629332 206.367704980356
vertex 36.0000006846989 20.732050808129 227.367704980356
vertex 35.5857871223258 20.4142135629332 227.367704980356
endloop
endfacet
facet normal 0.707106781186549 -0.707106781186546 0.0
outer loop
vertex 35.5857871223258 20.4142135629332 206.367704980356
vertex 35.2679498771301 20.0000000005602 227.367704980356
vertex 35.26794987713 20.0000000005602 206.367704980356
endloop
endfacet
facet normal 0.866025403784439 -0.499999999999999 0.0
outer loop
vertex 35.2679498771301 20.0000000005602 227.367704980356
vertex 35.5857871223258 20.4142135629332 206.367704980356
vertex 35.5857871223258 20.4142135629332 227.367704980356
endloop
endfacet
facet normal 0.866025403784439 -0.499999999999999 0.0
outer loop
vertex 35.26794987713 20.0000000005602 206.367704980356
vertex 35.0681490321208 19.5176380907652 227.367704980356
vertex 35.0681490321208 19.5176380907652 206.367704980356
endloop
endfacet
facet normal 0.965925826289068 -0.258819045102521 0.0
outer loop
vertex 35.0681490321208 19.5176380907652 227.367704980356
vertex 35.26794987713 20.0000000005602 206.367704980356
vertex 35.2679498771301 20.0000000005602 227.367704980356
endloop
endfacet
facet normal 0.965925826289068 -0.258819045102521 0.0
outer loop
vertex 35.0681490321208 19.5176380907652 206.367704980356
vertex 35.0000006846989 19.0000000005602 227.367704980356
vertex 35.0000006846989 19.0000000005602 206.367704980356
endloop
endfacet
facet normal 1.0 0.0 0.0
outer loop
vertex 35.0000006846989 19.0000000005602 227.367704980356
vertex 35.0681490321208 19.5176380907652 206.367704980356
vertex 35.0681490321208 19.5176380907652 227.367704980356
endloop
endfacet
facet normal 1.0 0.0 0.0
outer loop
vertex 35.0000006846989 19.0000000005602 206.367704980356
vertex 35.0681490321208 18.4823619103551 227.367704980356
vertex 35.0681490321208 18.4823619103551 206.367704980356
endloop
endfacet
facet normal 0.965925826289068 0.258819045102521 0.0
outer loop
vertex 35.0681490321208 18.4823619103551 227.367704980356
vertex 35.0000006846989 19.0000000005602 206.367704980356
vertex 35.0000006846989 19.0000000005602 227.367704980356
endloop
endfacet
facet normal 0.965925826289068 0.258819045102521 0.0
outer loop
vertex 35.0681490321208 18.4823619103551 206.367704980356
vertex 35.26794987713 18.0000000005601 227.367704980356
vertex 35.26794987713 18.0000000005601 206.367704980356
endloop
endfacet
facet normal 0.866025403784439 0.499999999999999 0.0
outer loop
vertex 35.26794987713 18.0000000005601 227.367704980356
vertex 35.0681490321208 18.4823619103551 206.367704980356
vertex 35.0681490321208 18.4823619103551 227.367704980356
endloop
endfacet
facet normal 0.866025403784439 0.499999999999999 0.0
outer loop
vertex 35.26794987713 18.0000000005601 206.367704980356
vertex 35.5857871223258 17.5857864381871 227.367704980356
vertex 35.5857871223258 17.5857864381871 206.367704980356
endloop
endfacet
facet normal 0.707106781186547 0.707106781186548 0.0
outer loop
vertex 35.5857871223258 17.5857864381871 227.367704980356
vertex 35.26794987713 18.0000000005601 206.367704980356
vertex 35.26794987713 18.0000000005601 227.367704980356
endloop
endfacet
facet normal 0.707106781186547 0.707106781186548 0.0
outer loop
vertex 35.5857871223258 17.5857864381871 227.367704980356
vertex 36.0000006846989 17.2679491929913 206.367704980356
vertex 35.5857871223258 17.5857864381871 206.367704980356
endloop
endfacet
facet normal 0.499999999999998 0.866025403784439 0.0
outer loop
vertex 36.0000006846989 17.2679491929913 206.367704980356
vertex 35.5857871223258 17.5857864381871 227.367704980356
vertex 36.0000006846989 17.2679491929913 227.367704980356
endloop
endfacet
facet normal 0.499999999999998 0.866025403784439 0.0
outer loop
vertex 36.0000006846989 17.2679491929913 227.367704980356
vertex 36.4823625944939 17.068148347982 206.367704980356
vertex 36.0000006846989 17.2679491929913 206.367704980356
endloop
endfacet
facet normal 0.258819045102522 0.965925826289068 0.0
outer loop
vertex 36.4823625944939 17.068148347982 206.367704980356
vertex 36.0000006846989 17.2679491929913 227.367704980356
vertex 36.4823625944939 17.068148347982 227.367704980356
endloop
endfacet
facet normal 0.258819045102522 0.965925826289068 0.0
outer loop
vertex 36.4823625944939 17.068148347982 227.367704980356
vertex 37.0000006846989 17.0000000005601 206.367704980356
vertex 36.4823625944939 17.068148347982 206.367704980356
endloop
endfacet
facet normal 6.95066571860458e-016 1.0 0.0
outer loop
vertex 37.0000006846989 17.0000000005601 206.367704980356
vertex 36.4823625944939 17.068148347982 227.367704980356
vertex 37.0000006846989 17.0000000005601 227.367704980356
endloop
endfacet
facet normal 6.95066571860458e-016 1.0 0.0
outer loop
vertex 37.0000006846989 17.0000000005601 227.367704980356
vertex 37.517638774904 17.068148347982 206.367704980356
vertex 37.0000006846989 17.0000000005601 206.367704980356
endloop
endfacet
facet normal -0.258819045102521 0.965925826289068 0.0
outer loop
vertex 37.517638774904 17.068148347982 206.367704980356
vertex 37.0000006846989 17.0000000005601 227.367704980356
vertex 37.517638774904 17.068148347982 227.367704980356
endloop
endfacet
facet normal -0.258819045102521 0.965925826289068 0.0
outer loop
vertex 37.517638774904 17.068148347982 227.367704980356
vertex 38.0000006846989 17.2679491929913 206.367704980356
vertex 37.517638774904 17.068148347982 206.367704980356
endloop
endfacet
facet normal -0.500000000000001 0.866025403784438 0.0
outer loop
vertex 38.0000006846989 17.2679491929913 206.367704980356
vertex 37.517638774904 17.068148347982 227.367704980356
vertex 38.0000006846989 17.2679491929913 227.367704980356
endloop
endfacet
facet normal -0.500000000000001 0.866025403784438 0.0
outer loop
vertex 38.0000006846989 17.2679491929913 227.367704980356
vertex 38.414214247072 17.5857864381871 206.367704980356
vertex 38.0000006846989 17.2679491929913 206.367704980356
endloop
endfacet
facet normal -0.707106781186549 0.707106781186546 0.0
outer loop
vertex 38.414214247072 17.5857864381871 206.367704980356
vertex 38.0000006846989 17.2679491929913 227.367704980356
vertex 38.414214247072 17.5857864381871 227.367704980356
endloop
endfacet
facet normal -0.86602540378444 0.499999999999998 0.0
outer loop
vertex 38.7320514922678 18.0000000005601 227.367704980356
vertex 38.414214247072 17.5857864381871 206.367704980356
vertex 38.414214247072 17.5857864381871 227.367704980356
endloop
endfacet
facet normal -0.707106781186549 0.707106781186546 0.0
outer loop
vertex 38.414214247072 17.5857864381871 206.367704980356
vertex 38.7320514922678 18.0000000005601 227.367704980356
vertex 38.7320514922678 18.0000000005601 206.367704980356
endloop
endfacet
facet normal 0.0 0.0 1.0
outer loop
vertex 35.3500006846989 16.1421161680715 227.367704980356
vertex 35.0000006846989 19.0000000005602 227.367704980356
vertex 33.7000006846989 19.0000000005601 227.367704980356
endloop
endfacet
facet normal 0.0 0.0 1.0
outer loop
vertex 35.0000006846989 19.0000000005602 227.367704980356
vertex 35.3500006846989 16.1421161680715 227.367704980356
vertex 35.0681490321208 18.4823619103551 227.367704980356
endloop
endfacet
facet normal 0.0 0.0 1.0
outer loop
vertex 35.0681490321208 18.4823619103551 227.367704980356
vertex 35.3500006846989 16.1421161680715 227.367704980356
vertex 35.26794987713 18.0000000005601 227.367704980356
endloop
endfacet
facet normal 0.0 0.0 1.0
outer loop
vertex 35.26794987713 18.0000000005601 227.367704980356
vertex 35.3500006846989 16.1421161680715 227.367704980356
vertex 35.5857871223258 17.5857864381871 227.367704980356
endloop
endfacet
facet normal 0.0 0.0 1.0
outer loop
vertex 35.5857871223258 17.5857864381871 227.367704980356
vertex 35.3500006846989 16.1421161680715 227.367704980356
vertex 36.0000006846989 17.2679491929913 227.367704980356
endloop
endfacet
facet normal 0.0 0.0 1.0
outer loop
vertex 36.0000006846989 17.2679491929913 227.367704980356
vertex 35.3500006846989 16.1421161680715 227.367704980356
vertex 38.6500006846989 16.1421161680715 227.367704980356
endloop
endfacet
facet normal 0.0 0.0 1.0
outer loop
vertex 36.0000006846989 17.2679491929913 227.367704980356
vertex 38.6500006846989 16.1421161680715 227.367704980356
vertex 36.4823625944939 17.068148347982 227.367704980356
endloop
endfacet
facet normal 0.0 0.0 1.0
outer loop
vertex 36.4823625944939 17.068148347982 227.367704980356
vertex 38.6500006846989 16.1421161680715 227.367704980356
vertex 37.0000006846989 17.0000000005601 227.367704980356
endloop
endfacet
facet normal 0.0 0.0 1.0
outer loop
vertex 37.0000006846989 17.0000000005601 227.367704980356
vertex 38.6500006846989 16.1421161680715 227.367704980356
vertex 37.517638774904 17.068148347982 227.367704980356
endloop
endfacet
facet normal 0.0 0.0 1.0
outer loop
vertex 37.517638774904 17.068148347982 227.367704980356
vertex 38.6500006846989 16.1421161680715 227.367704980356
vertex 38.0000006846989 17.2679491929913 227.367704980356
endloop
endfacet
facet normal 0.0 0.0 1.0
outer loop
vertex 38.0000006846989 17.2679491929913 227.367704980356
vertex 38.6500006846989 16.1421161680715 227.367704980356
vertex 38.414214247072 17.5857864381871 227.367704980356
endloop
endfacet
facet normal 0.0 0.0 1.0
outer loop
vertex 38.414214247072 17.5857864381871 227.367704980356
vertex 38.6500006846989 16.1421161680715 227.367704980356
vertex 38.7320514922678 18.0000000005601 227.367704980356
endloop
endfacet
facet normal 0.0 0.0 1.0
outer loop
vertex 38.7320514922678 18.0000000005601 227.367704980356
vertex 38.6500006846989 16.1421161680715 227.367704980356
vertex 40.3000006846989 19.0000000005601 227.367704980356
endloop
endfacet
facet normal 0.0 0.0 1.0
outer loop
vertex 38.7320514922678 18.0000000005601 227.367704980356
vertex 40.3000006846989 19.0000000005601 227.367704980356
vertex 38.9318523372771 18.4823619103551 227.367704980356
endloop
endfacet
facet normal 0.0 0.0 1.0
outer loop
vertex 38.9318523372771 18.4823619103551 227.367704980356
vertex 40.3000006846989 19.0000000005601 227.367704980356
vertex 39.0000006846989 19.0000000005601 227.367704980356
endloop
endfacet
facet normal 0.0 0.0 1.0
outer loop
vertex 35.0000006846989 19.0000000005602 227.367704980356
vertex 35.3500006846989 21.8578838330488 227.367704980356
vertex 33.7000006846989 19.0000000005601 227.367704980356
endloop
endfacet
facet normal 0.0 0.0 1.0
outer loop
vertex 35.3500006846989 21.8578838330488 227.367704980356
vertex 35.0000006846989 19.0000000005602 227.367704980356
vertex 35.0681490321208 19.5176380907652 227.367704980356
endloop
endfacet
facet normal 0.0 0.0 1.0
outer loop
vertex 35.3500006846989 21.8578838330488 227.367704980356
vertex 35.0681490321208 19.5176380907652 227.367704980356
vertex 35.2679498771301 20.0000000005602 227.367704980356
endloop
endfacet
facet normal 0.0 0.0 1.0
outer loop
vertex 35.3500006846989 21.8578838330488 227.367704980356
vertex 35.2679498771301 20.0000000005602 227.367704980356
vertex 35.5857871223258 20.4142135629332 227.367704980356
endloop
endfacet
facet normal 0.0 0.0 1.0
outer loop
vertex 35.3500006846989 21.8578838330488 227.367704980356
vertex 35.5857871223258 20.4142135629332 227.367704980356
vertex 36.0000006846989 20.732050808129 227.367704980356
endloop
endfacet
facet normal 0.0 0.0 1.0
outer loop
vertex 35.3500006846989 21.8578838330488 227.367704980356
vertex 36.0000006846989 20.732050808129 227.367704980356
vertex 38.6500006846989 21.8578838330488 227.367704980356
endloop
endfacet
facet normal 0.0 0.0 1.0
outer loop
vertex 38.6500006846989 21.8578838330488 227.367704980356
vertex 36.0000006846989 20.732050808129 227.367704980356
vertex 36.4823625944939 20.9318516531383 227.367704980356
endloop
endfacet
facet normal 0.0 0.0 1.0
outer loop
vertex 38.6500006846989 21.8578838330488 227.367704980356
vertex 36.4823625944939 20.9318516531383 227.367704980356
vertex 37.0000006846989 21.0000000005602 227.367704980356
endloop
endfacet
facet normal 0.0 0.0 1.0
outer loop
vertex 38.6500006846989 21.8578838330488 227.367704980356
vertex 37.0000006846989 21.0000000005602 227.367704980356
vertex 37.517638774904 20.9318516531383 227.367704980356
endloop
endfacet
facet normal 0.0 0.0 1.0
outer loop
vertex 38.6500006846989 21.8578838330488 227.367704980356
vertex 37.517638774904 20.9318516531383 227.367704980356
vertex 38.0000006846989 20.732050808129 227.367704980356
endloop
endfacet
facet normal 0.0 0.0 1.0
outer loop
vertex 38.6500006846989 21.8578838330488 227.367704980356
vertex 38.0000006846989 20.732050808129 227.367704980356
vertex 38.414214247072 20.4142135629332 227.367704980356
endloop
endfacet
facet normal 0.0 0.0 1.0
outer loop
vertex 38.6500006846989 21.8578838330488 227.367704980356
vertex 38.414214247072 20.4142135629332 227.367704980356
vertex 38.7320514922678 20.0000000005602 227.367704980356
endloop
endfacet
facet normal 0.0 0.0 1.0
outer loop
vertex 38.6500006846989 21.8578838330488 227.367704980356
vertex 38.7320514922678 20.0000000005602 227.367704980356
vertex 40.3000006846989 19.0000000005601 227.367704980356
endloop
endfacet
facet normal 0.0 0.0 1.0
outer loop
vertex 40.3000006846989 19.0000000005601 227.367704980356
vertex 38.7320514922678 20.0000000005602 227.367704980356
vertex 38.9318523372771 19.5176380907652 227.367704980356
endloop
endfacet
facet normal 0.0 0.0 1.0
outer loop
vertex 40.3000006846989 19.0000000005601 227.367704980356
vertex 38.9318523372771 19.5176380907652 227.367704980356
vertex 39.0000006846989 19.0000000005601 227.367704980356
endloop
endfacet
facet normal 0.866025403784438 0.5 0.0
outer loop
vertex 33.7000006846989 19.0000000005601 227.367704980356
vertex 35.3500006846989 16.1421161680715 231.367704980356
vertex 35.3500006846989 16.1421161680715 227.367704980356
endloop
endfacet
facet normal 0.866025403784438 0.5 0.0
outer loop
vertex 35.3500006846989 16.1421161680715 231.367704980356
vertex 33.7000006846989 19.0000000005601 227.367704980356
vertex 33.7000006846989 19.0000000005601 231.367704980356
endloop
endfacet
facet normal -8.54535297741786e-016 1.0 0.0
outer loop
vertex 35.3500006846989 16.1421161680715 231.367704980356
vertex 38.6500006846989 16.1421161680715 227.367704980356
vertex 35.3500006846989 16.1421161680715 227.367704980356
endloop
endfacet
facet normal -8.54535297741786e-016 1.0 0.0
outer loop
vertex 38.6500006846989 16.1421161680715 227.367704980356
vertex 35.3500006846989 16.1421161680715 231.367704980356
vertex 38.6500006846989 16.1421161680715 231.367704980356
endloop
endfacet
facet normal -0.866025403784439 0.5 0.0
outer loop
vertex 40.3000006846989 19.0000000005601 231.367704980356
vertex 38.6500006846989 16.1421161680715 227.367704980356
vertex 38.6500006846989 16.1421161680715 231.367704980356
endloop
endfacet
facet normal -0.866025403784439 0.5 0.0
outer loop
vertex 38.6500006846989 16.1421161680715 227.367704980356
vertex 40.3000006846989 19.0000000005601 231.367704980356
vertex 40.3000006846989 19.0000000005601 227.367704980356
endloop
endfacet
facet normal -0.866025403784438 -0.5 0.0
outer loop
vertex 38.6500006846989 21.8578838330488 231.367704980356
vertex 40.3000006846989 19.0000000005601 227.367704980356
vertex 40.3000006846989 19.0000000005601 231.367704980356
endloop
endfacet
facet normal -0.866025403784438 -0.5 0.0
outer loop
vertex 40.3000006846989 19.0000000005601 227.367704980356
vertex 38.6500006846989 21.8578838330488 231.367704980356
vertex 38.6500006846989 21.8578838330488 227.367704980356
endloop
endfacet
facet normal 8.54535297741786e-016 -1.0 0.0
outer loop
vertex 38.6500006846989 21.8578838330488 231.367704980356
vertex 35.3500006846989 21.8578838330488 227.367704980356
vertex 38.6500006846989 21.8578838330488 227.367704980356
endloop
endfacet
facet normal 8.54535297741786e-016 -1.0 0.0
outer loop
vertex 35.3500006846989 21.8578838330488 227.367704980356
vertex 38.6500006846989 21.8578838330488 231.367704980356
vertex 35.3500006846989 21.8578838330488 231.367704980356
endloop
endfacet
facet normal 0.866025403784439 -0.5 0.0
outer loop
vertex 35.3500006846989 21.8578838330488 227.367704980356
vertex 33.7000006846989 19.0000000005601 231.367704980356
vertex 33.7000006846989 19.0000000005601 227.367704980356
endloop
endfacet
facet normal 0.866025403784439 -0.5 0.0
outer loop
vertex 33.7000006846989 19.0000000005601 231.367704980356
vertex 35.3500006846989 21.8578838330488 227.367704980356
vertex 35.3500006846989 21.8578838330488 231.367704980356
endloop
endfacet
facet normal -0.576089275120965 -0.817386779371065 6.45435073467727e-015
outer loop
vertex 33.000000684699 15.0000000005601 231.367704980356
vertex 24.000000684699 21.3431457510676 206.367704980356
vertex 33.000000684699 15.00000000056 206.367704980356
endloop
endfacet
facet normal -0.576089275120965 -0.817386779371065 6.45435073467727e-015
outer loop
vertex 24.000000684699 21.3431457510676 206.367704980356
vertex 33.000000684699 15.0000000005601 231.367704980356
vertex 24.000000684699 21.3431457510678 231.367704980356
endloop
endfacet
facet normal 7.04991620636996e-016 1.0 6.90996027884066e-015
outer loop
vertex 46.0000006846989 30.0000000005601 212.999357477943
vertex 47.0000006846989 30.0000000005601 206.367704980356
vertex 46.0000006846989 30.0000000005601 206.367704980356
endloop
endfacet
facet normal 7.04991620636996e-016 1.0 6.90996027884066e-015
outer loop
vertex 47.0000006846989 30.0000000005601 206.367704980356
vertex 46.0000006846989 30.0000000005601 212.999357477943
vertex 47.0000006846989 30.0000000005601 212.999357477943
endloop
endfacet
facet normal -1.0 7.04991620636983e-016 0.0
outer loop
vertex 46.0000006846989 30.0000000005601 212.999357477943
vertex 46.0000006846989 29.0000000005601 206.367704980356
vertex 46.0000006846989 29.0000000005601 212.999357477943
endloop
endfacet
facet normal -1.0 7.04991620636983e-016 0.0
outer loop
vertex 46.0000006846989 29.0000000005601 206.367704980356
vertex 46.0000006846989 30.0000000005601 212.999357477943
vertex 46.0000006846989 30.0000000005601 206.367704980356
endloop
endfacet
facet normal 0.0 -6.90996027884066e-015 1.0
outer loop
vertex 47.0000006846989 29.0000000005601 212.999357477943
vertex 46.0000006846989 30.0000000005601 212.999357477943
vertex 46.0000006846989 29.0000000005601 212.999357477943
endloop
endfacet
facet normal 0.0 -6.90996027884066e-015 1.0
outer loop
vertex 46.0000006846989 30.0000000005601 212.999357477943
vertex 47.0000006846989 29.0000000005601 212.999357477943
vertex 47.0000006846989 30.0000000005601 212.999357477943
endloop
endfacet
facet normal 4.44144721001295e-015 1.0 2.41013282639524e-016
outer loop
vertex 41.0000006846989 29.0000000005601 206.367704980356
vertex 41.5681490321208 29.0000000005601 218.350066890151
vertex 46.0000006846989 29.0000000005601 206.367704980356
endloop
endfacet
facet normal 4.44144721001295e-015 1.0 2.41013282639524e-016
outer loop
vertex 41.5681490321208 29.0000000005601 218.350066890151
vertex 41.0000006846989 29.0000000005601 206.367704980356
vertex 41.500000684699 29.0000000005601 218.867704980356
endloop
endfacet
facet normal 4.44144721001295e-015 1.0 2.41013282639524e-016
outer loop
vertex 41.500000684699 29.0000000005601 218.867704980356
vertex 41.0000006846989 29.0000000005601 206.367704980356
vertex 41.0000006846989 29.0000000005601 231.367704980356
endloop
endfacet
facet normal 4.44144721001295e-015 1.0 2.41013282639524e-016
outer loop
vertex 46.0000006846989 29.0000000005601 206.367704980356
vertex 41.5681490321208 29.0000000005601 218.350066890151
vertex 41.7679498771301 29.0000000005601 217.867704980356
endloop
endfacet
facet normal 4.44144721001295e-015 1.0 2.41013282639524e-016
outer loop
vertex 46.0000006846989 29.0000000005601 206.367704980356
vertex 41.7679498771301 29.0000000005601 217.867704980356
vertex 42.0857871223259 29.0000000005601 217.453491417983
endloop
endfacet
facet normal 4.44144721001295e-015 1.0 2.41013282639524e-016
outer loop
vertex 46.0000006846989 29.0000000005601 206.367704980356
vertex 42.0857871223259 29.0000000005601 217.453491417983
vertex 46.0000006846989 29.0000000005601 212.999357477943
endloop
endfacet
facet normal 4.44144721001295e-015 1.0 2.41013282639524e-016
outer loop
vertex 46.0000006846989 29.0000000005601 212.999357477943
vertex 42.0857871223259 29.0000000005601 217.453491417983
vertex 42.500000684699 29.0000000005601 217.135654172787
endloop
endfacet
facet normal 4.44144721001295e-015 1.0 2.41013282639524e-016
outer loop
vertex 46.0000006846989 29.0000000005601 212.999357477943
vertex 42.500000684699 29.0000000005601 217.135654172787
vertex 42.9823625944939 29.0000000005601 216.935853327778
endloop
endfacet
facet normal 4.44144721001295e-015 1.0 2.41013282639524e-016
outer loop
vertex 46.0000006846989 29.0000000005601 212.999357477943
vertex 42.9823625944939 29.0000000005601 216.935853327778
vertex 43.500000684699 29.0000000005601 216.867704980356
endloop
endfacet
facet normal 4.44144721001295e-015 1.0 2.41013282639524e-016
outer loop
vertex 41.500000684699 29.0000000005601 218.867704980356
vertex 41.0000006846989 29.0000000005601 231.367704980356
vertex 41.5681490321208 29.0000000005601 219.385343070561
endloop
endfacet
facet normal 4.44144721001295e-015 1.0 2.41013282639524e-016
outer loop
vertex 41.5681490321208 29.0000000005601 219.385343070561
vertex 41.0000006846989 29.0000000005601 231.367704980356
vertex 41.7679498771301 29.0000000005601 219.867704980356
endloop
endfacet
facet normal 4.44144721001295e-015 1.0 2.41013282639524e-016
outer loop
vertex 41.7679498771301 29.0000000005601 219.867704980356
vertex 41.0000006846989 29.0000000005601 231.367704980356
vertex 42.0857871223259 29.0000000005601 220.281918542729
endloop
endfacet
facet normal 4.44144721001295e-015 1.0 2.41013282639524e-016
outer loop
vertex 42.0857871223259 29.0000000005601 220.281918542729
vertex 41.0000006846989 29.0000000005601 231.367704980356
vertex 42.5000006846989 29.0000000005601 220.599755787925
endloop
endfacet
facet normal 4.44144721001295e-015 1.0 2.41013282639524e-016
outer loop
vertex 42.5000006846989 29.0000000005601 220.599755787925
vertex 41.0000006846989 29.0000000005601 231.367704980356
vertex 42.9823625944939 29.0000000005601 220.799556632934
endloop
endfacet
facet normal 4.44144721001295e-015 1.0 2.41013282639524e-016
outer loop
vertex 42.9823625944939 29.0000000005601 220.799556632934
vertex 41.0000006846989 29.0000000005601 231.367704980356
vertex 43.500000684699 29.0000000005601 220.867704980356
endloop
endfacet
facet normal 4.44144721001295e-015 1.0 2.41013282639524e-016
outer loop
vertex 43.500000684699 29.0000000005601 220.867704980356
vertex 41.0000006846989 29.0000000005601 231.367704980356
vertex 46.0000006846989 29.0000000005601 224.736052482768
endloop
endfacet
facet normal 4.44144721001295e-015 1.0 2.41013282639524e-016
outer loop
vertex 46.0000006846989 29.0000000005601 224.736052482768
vertex 41.0000006846989 29.0000000005601 231.367704980356
vertex 46.0000006846989 29.0000000005601 231.367704980356
endloop
endfacet
facet normal 4.44144721001295e-015 1.0 2.41013282639524e-016
outer loop
vertex 46.0000006846989 29.0000000005601 212.999357477943
vertex 45.500000684699 29.0000000005601 218.867704980356
vertex 46.0000006846989 29.0000000005601 224.736052482768
endloop
endfacet
facet normal 4.44144721001295e-015 1.0 2.41013282639524e-016
outer loop
vertex 45.500000684699 29.0000000005601 218.867704980356
vertex 46.0000006846989 29.0000000005601 212.999357477943
vertex 45.4318523372771 29.0000000005601 218.350066890151
endloop
endfacet
facet normal 4.44144721001295e-015 1.0 2.41013282639524e-016
outer loop
vertex 45.4318523372771 29.0000000005601 218.350066890151
vertex 46.0000006846989 29.0000000005601 212.999357477943
vertex 45.2320514922679 29.0000000005601 217.867704980356
endloop
endfacet
facet normal 4.44144721001295e-015 1.0 2.41013282639524e-016
outer loop
vertex 45.2320514922679 29.0000000005601 217.867704980356
vertex 46.0000006846989 29.0000000005601 212.999357477943
vertex 44.9142142470721 29.0000000005601 217.453491417983
endloop
endfacet
facet normal 4.44144721001295e-015 1.0 2.41013282639524e-016
outer loop
vertex 44.9142142470721 29.0000000005601 217.453491417983
vertex 46.0000006846989 29.0000000005601 212.999357477943
vertex 44.500000684699 29.0000000005601 217.135654172787
endloop
endfacet
facet normal 4.44144721001295e-015 1.0 2.41013282639524e-016
outer loop
vertex 44.500000684699 29.0000000005601 217.135654172787
vertex 46.0000006846989 29.0000000005601 212.999357477943
vertex 44.0176387749041 29.0000000005601 216.935853327778
endloop
endfacet
facet normal 4.44144721001295e-015 1.0 2.41013282639524e-016
outer loop
vertex 44.0176387749041 29.0000000005601 216.935853327778
vertex 46.0000006846989 29.0000000005601 212.999357477943
vertex 43.500000684699 29.0000000005601 216.867704980356
endloop
endfacet
facet normal 4.44144721001295e-015 1.0 2.41013282639524e-016
outer loop
vertex 46.0000006846989 29.0000000005601 224.736052482768
vertex 45.500000684699 29.0000000005601 218.867704980356
vertex 45.4318523372771 29.0000000005601 219.385343070561
endloop
endfacet
facet normal 4.44144721001295e-015 1.0 2.41013282639524e-016
outer loop
vertex 46.0000006846989 29.0000000005601 224.736052482768
vertex 45.4318523372771 29.0000000005601 219.385343070561
vertex 45.2320514922678 29.0000000005601 219.867704980356
endloop
endfacet
facet normal 4.44144721001295e-015 1.0 2.41013282639524e-016
outer loop
vertex 46.0000006846989 29.0000000005601 224.736052482768
vertex 45.2320514922678 29.0000000005601 219.867704980356
vertex 44.9142142470721 29.0000000005601 220.281918542729
endloop
endfacet
facet normal 4.44144721001295e-015 1.0 2.41013282639524e-016
outer loop
vertex 46.0000006846989 29.0000000005601 224.736052482768
vertex 44.9142142470721 29.0000000005601 220.281918542729
vertex 44.5000006846989 29.0000000005601 220.599755787925
endloop
endfacet
facet normal 4.44144721001295e-015 1.0 2.41013282639524e-016
outer loop
vertex 46.0000006846989 29.0000000005601 224.736052482768
vertex 44.5000006846989 29.0000000005601 220.599755787925
vertex 44.017638774904 29.0000000005601 220.799556632934
endloop
endfacet
facet normal 4.44144721001295e-015 1.0 2.41013282639524e-016
outer loop
vertex 46.0000006846989 29.0000000005601 224.736052482768
vertex 44.017638774904 29.0000000005601 220.799556632934
vertex 43.500000684699 29.0000000005601 220.867704980356
endloop
endfacet
facet normal -1.12798659301917e-014 1.0 -1.70091329940692e-015
outer loop
vertex 46.0000006846989 30.0000000005601 231.367704980356
vertex 47.0000006846989 30.0000000005601 224.736052482768
vertex 46.0000006846989 30.0000000005601 224.736052482768
endloop
endfacet
facet normal -1.12798659301917e-014 1.0 -1.70091329940692e-015
outer loop
vertex 47.0000006846989 30.0000000005601 224.736052482768
vertex 46.0000006846989 30.0000000005601 231.367704980356
vertex 47.0000006846989 30.0000000005601 231.367704980356
endloop
endfacet
facet normal 0.0 -1.70091329940692e-015 -1.0
outer loop
vertex 47.0000006846989 30.0000000005601 224.736052482768
vertex 46.0000006846989 29.0000000005601 224.736052482768
vertex 46.0000006846989 30.0000000005601 224.736052482768
endloop
endfacet
facet normal 0.0 -1.70091329940692e-015 -1.0
outer loop
vertex 46.0000006846989 29.0000000005601 224.736052482768
vertex 47.0000006846989 30.0000000005601 224.736052482768
vertex 47.0000006846989 29.0000000005601 224.736052482768
endloop
endfacet
facet normal -1.0 -1.12798659301917e-014 0.0
outer loop
vertex 46.0000006846989 30.0000000005601 231.367704980356
vertex 46.0000006846989 29.0000000005601 224.736052482768
vertex 46.0000006846989 29.0000000005601 231.367704980356
endloop
endfacet
facet normal -1.0 -1.12798659301917e-014 0.0
outer loop
vertex 46.0000006846989 29.0000000005601 224.736052482768
vertex 46.0000006846989 30.0000000005601 231.367704980356
vertex 46.0000006846989 30.0000000005601 224.736052482768
endloop
endfacet
endsolid PORTIQUE
